<?xml version="1.0" encoding="UTF-8"?>
<svg width="283px" height="237px" viewBox="0 0 283 237" version="1.1" xmlns="http://www.w3.org/2000/svg" xmlns:xlink="http://www.w3.org/1999/xlink">
    <!-- Generator: Sketch 63.1 (92452) - https://sketch.com -->
    <title>shirt2</title>
    <desc>Created with Sketch.</desc>
    <g id="MSCHFX" stroke="none" stroke-width="1" fill="none" fill-rule="evenodd">
        <g id="Desktop-|-Launch-State" transform="translate(-721.000000, -161.000000)">
            <g id="HOMEPAGE" transform="translate(161.000000, 52.000000)">
                <g id="SHIRT-PIECE-MODAL" transform="translate(538.000000, 56.000000)">
                    <g id="ShirtViews" transform="translate(16.149999, 41.649998)">
                        <g id="shirt2" transform="translate(5.950000, 11.475000)">
                            <path d="M231.22062,129.442185 L231.0564,102.802251 L248.210844,113.494401 L282.238298,58.901963 L216.988815,14.8475699 L201.572961,9.89241008 L171.957432,0.373005484 C167.701992,13.1565799 155.479503,22.4159696 141.320289,22.6426645 C139.028944,22.6057745 136.788769,22.3290996 134.623564,21.8423896 L134.622374,21.8447696 L134.614639,21.8400096 C128.334414,20.4262896 122.697979,17.2180498 118.3283,12.78411 C114.901695,9.30752511 112.25097,5.08064529 110.68374,0.373005484 L81.9857011,9.5978851 L65.6523567,14.8475699 L11.729294,51.1044883 L0.402874483,58.901963 L34.4309231,113.494401 L48.7376974,104.402801 L51.5847723,102.802251 L51.3009573,111.373226 L50.9921524,183.390238 L50.7612924,200.226952 L50.7612924,236.362491 L100.58421,236.362491 L231.87988,236.362491 L231.530615,179.771448 L231.347355,148.571434 L231.22062,129.442185" id="Stroke-1" stroke="#020303" stroke-width="0.594999975" fill="#EFEFFF"></path>
                            <polygon id="Fill-3" fill="#020303" points="128.208334 177.845552 100.584865 236.36261 231.879939 236.36261 231.530674 179.771567 190.201976 160.178813"></polygon>
                            <path d="M216.988875,14.8474509 C209.53174,76.6893683 225.987654,97.7184524 230.135994,101.946522 L231.056459,102.802132 L241.172054,109.107347 L250.250563,37.3051299 L216.988875,14.8474509 Z" id="Fill-4" fill="#020303"></path>
                        </g>
                    </g>
                </g>
            </g>
        </g>
    </g>
</svg>