<?xml version="1.0" encoding="UTF-8"?>
<svg width="283px" height="237px" viewBox="0 0 283 237" version="1.1" xmlns="http://www.w3.org/2000/svg" xmlns:xlink="http://www.w3.org/1999/xlink">
    <!-- Generator: Sketch 63.1 (92452) - https://sketch.com -->
    <title>shirt6</title>
    <desc>Created with Sketch.</desc>
    <g id="MSCHFX" stroke="none" stroke-width="1" fill="none" fill-rule="evenodd">
        <g id="Desktop-|-Launch-State" transform="translate(-744.000000, -154.000000)">
            <g id="HOMEPAGE" transform="translate(161.000000, 52.000000)">
                <g id="SHIRT-PIECE-MODAL" transform="translate(538.000000, 56.000000)">
                    <g id="ShirtViews" transform="translate(16.149999, 41.649998)">
                        <g id="shirt6" transform="translate(28.899999, 4.675000)">
                            <path d="M231.22062,129.441947 L231.0564,102.802013 L248.210844,113.494163 L282.238298,58.90232 L216.988815,14.8473319 L201.572961,9.89276708 L171.957432,0.373362484 C167.701992,13.1569369 155.479503,22.4157316 141.320289,22.6424265 C139.028944,22.6061315 136.788769,22.3294566 134.623564,21.8421516 L134.622374,21.8445316 L134.614639,21.8403666 C128.334414,20.4260516 122.697979,17.2184068 118.3283,12.784467 C114.901695,9.30788211 112.25097,5.08100229 110.68374,0.373362484 L81.9857011,9.5976471 L65.6523567,14.8473319 L11.729294,51.1048453 L0.402874483,58.90232 L34.4309231,113.494163 L48.7376974,104.402563 L51.5847723,102.802013 L51.3009573,111.373583 L50.9921524,183.390595 L50.7612924,200.227309 L50.7612924,236.362253 L100.58421,236.362253 L231.87988,236.362253 L231.530615,179.771805 L231.347355,148.571791 L231.22062,129.441947" id="Stroke-1" stroke="#020303" stroke-width="0.594999975" fill="#EFEFFF"></path>
                            <polygon id="Fill-3" fill="#0D00FF" points="51.3011358 111.373464 83.6822245 121.937688 124.733058 41.2759218 81.9852846 9.5975281 65.6525352 14.8472129 11.7294725 51.1047263 48.7372809 104.403039 51.5849508 102.801894"></polygon>
                        </g>
                    </g>
                </g>
            </g>
        </g>
    </g>
</svg>
