<?xml version="1.0" encoding="UTF-8"?>
<svg width="283px" height="237px" viewBox="0 0 283 237" version="1.1" xmlns="http://www.w3.org/2000/svg" xmlns:xlink="http://www.w3.org/1999/xlink">
    <!-- Generator: Sketch 63.1 (92452) - https://sketch.com -->
    <title>shirt5</title>
    <desc>Created with Sketch.</desc>
    <g id="MSCHFX" stroke="none" stroke-width="1" fill="none" fill-rule="evenodd">
        <g id="Desktop-|-Launch-State" transform="translate(-738.000000, -156.000000)">
            <g id="HOMEPAGE" transform="translate(161.000000, 52.000000)">
                <g id="SHIRT-PIECE-MODAL" transform="translate(538.000000, 56.000000)">
                    <g id="ShirtViews" transform="translate(16.149999, 41.649998)">
                        <g id="shirt5" transform="translate(22.949999, 6.375000)">
                            <path d="M231.22062,129.441947 L231.0564,102.802013 L248.210844,113.494163 L282.238298,58.90232 L216.988815,14.8473319 L201.572961,9.89276708 L171.957432,0.373362484 C167.701992,13.1569369 155.479503,22.4157316 141.320884,22.6424265 C139.028944,22.6061315 136.788769,22.3294566 134.623564,21.8421516 L134.622374,21.8445316 L134.614639,21.8403666 C128.334414,20.4260516 122.697979,17.2184068 118.3283,12.784467 C114.9011,9.30788211 112.25097,5.08100229 110.68374,0.373362484 L81.9857011,9.5976471 L65.6523567,14.8473319 L11.729889,51.1048453 L0.402874483,58.90232 L34.4309231,113.494163 L48.7376974,104.402563 L51.5847723,102.802013 L51.3009573,111.373583 L50.9921524,183.390595 L50.7612924,200.227309 L50.7612924,236.362253 L100.584805,236.362253 L231.87988,236.362253 L231.53121,179.771805 L231.347355,148.571791 L231.22062,129.441947" id="Stroke-1" stroke="#020303" stroke-width="0.594999975" fill="#EFEFFF"></path>
                            <path d="M11.72977,51.1047263 L48.7375784,104.403039 L34.4308041,113.494044 L0.402755483,58.902201 L11.72977,51.1047263 Z M110.683561,0.373064984 C112.250791,5.08070479 114.901516,9.30758461 118.328121,12.7841695 L118.328121,12.7841695 L118.728888,13.1838625 C123.040554,17.4109002 128.524563,20.4691891 134.615055,21.8400691 L134.615055,21.8400691 L134.62279,21.8448291 L124.733296,41.2763383 L81.9855226,9.5979446 Z" id="Fill-26" fill="#0D00FF"></path>
                        </g>
                    </g>
                </g>
            </g>
        </g>
    </g>
</svg>
