<?xml version="1.0" encoding="UTF-8"?>
<svg width="419px" height="157px" viewBox="0 0 419 157" version="1.1" xmlns="http://www.w3.org/2000/svg" xmlns:xlink="http://www.w3.org/1999/xlink">
    <title>Group</title>
    <g id="Pre-Drop" stroke="none" stroke-width="1" fill="none" fill-rule="evenodd">
        <g id="Desktop-|-Launch-State-Copy-2" transform="translate(-491.000000, -153.000000)">
            <g id="Group" transform="translate(491.000000, 153.000000)">
                <g id="Group-187" transform="translate(0.135200, 0.584800)"></g>
                <polygon id="Fill-51" fill="#FFFFFE" points="94.8042 118.24 129.3542 106.844 169.6122 121.586 168.9822 155.41 79.1502 155.146"></polygon>
                <polygon id="Stroke-53" stroke="#0B0B09" stroke-linejoin="bevel" points="94.8042 118.24 129.3542 106.844 169.6122 121.586 168.9822 155.41 79.1502 155.146"></polygon>
                <polygon id="Fill-55" fill="#FFFFFE" points="169.6118 121.5858 129.3538 106.8438 169.9858 93.4438"></polygon>
                <polygon id="Stroke-57" stroke="#0B0B09" stroke-linejoin="bevel" points="169.6118 121.5858 129.3538 106.8438 169.9858 93.4438"></polygon>
                <polygon id="Fill-59" fill="#FFFFFE" points="94.8042 118.24 79.1502 155.146 33.1502 155.26 32.7742 138.698"></polygon>
                <polygon id="Stroke-61" stroke="#0B0B09" stroke-linejoin="bevel" points="94.8042 118.24 79.1502 155.146 33.1502 155.26 32.7742 138.698"></polygon>
                <polygon id="Fill-63" fill="#FFFFFE" points="169.9858 93.4432 122.2558 53.3212 103.6418 97.3392 129.3538 106.8452"></polygon>
                <polygon id="Stroke-65" stroke="#0B0B09" stroke-linejoin="bevel" points="169.9858 93.4432 122.2558 53.3212 103.6418 97.3392 129.3538 106.8452"></polygon>
                <polygon id="Fill-67" fill="#FFFFFE" points="103.642 97.3396 94.804 118.2396 129.354 106.8436"></polygon>
                <polygon id="Stroke-69" stroke="#0B0B09" stroke-linejoin="bevel" points="103.642 97.3396 94.804 118.2396 129.354 106.8436"></polygon>
                <polygon id="Fill-71" fill="#FFFFFE" points="32.7748 138.699 61.9448 81.927 103.6428 97.339 94.8048 118.241"></polygon>
                <polygon id="Stroke-73" stroke="#0B0B09" stroke-linejoin="bevel" points="32.7748 138.699 61.9448 81.927 103.6428 97.339 94.8048 118.241"></polygon>
                <polygon id="Fill-75" fill="#FFFFFE" points="61.9448 81.9266 31.7668 70.8126 32.7748 138.6986"></polygon>
                <polygon id="Stroke-77" stroke="#0B0B09" stroke-linejoin="bevel" points="61.9448 81.9266 31.7668 70.8126 32.7748 138.6986"></polygon>
                <polygon id="Fill-79" fill="#0000FF" points="122.2554 53.3222 90.3994 26.5462 61.9454 81.9262 103.6414 97.3402"></polygon>
                <polygon id="Stroke-81" stroke="#0B0B09" stroke-linejoin="bevel" points="122.2554 53.3222 90.3994 26.5462 61.9454 81.9262 103.6414 97.3402"></polygon>
                <path d="M170.397,62.325 L169.985,93.443 L122.255,53.323 L142.251,6.035 L154.691,9.307 C154.691,9.307 147.213,31.365 151.371,46.849 C155.527,62.333 164.839,62.317 170.397,62.325" id="Fill-83" fill="#FFFFFE"></path>
                <path d="M170.397,62.325 L169.985,93.443 L122.255,53.323 L142.251,6.035 L154.691,9.307 C154.691,9.307 147.213,31.365 151.371,46.849 C155.527,62.333 164.839,62.317 170.397,62.325 Z" id="Stroke-85" stroke="#0B0B09" stroke-linejoin="bevel"></path>
                <path d="M142.2504,6.036 L122.9884,1 C122.9884,1 120.4664,19.532 95.6524,16.214 L90.4004,26.546 L122.2544,53.322 L142.2504,6.036 Z" id="Fill-87" fill="#FFFFFE"></path>
                <path d="M142.2504,6.036 L122.9884,1 C122.9884,1 120.4664,19.532 95.6524,16.214 L90.4004,26.546 L122.2544,53.322 L142.2504,6.036 Z" id="Stroke-89" stroke="#0B0B09" stroke-linejoin="bevel"></path>
                <path d="M95.6518,16.2146 C95.6518,16.2146 90.4838,15.8526 85.5958,11.8086 C79.8038,7.0166 79.0638,1.0006 79.0638,1.0006 L64.5598,4.9166 L90.3998,26.5466 L95.6518,16.2146 Z" id="Fill-91" fill="#FFFFFE"></path>
                <path d="M95.6518,16.2146 C95.6518,16.2146 90.4838,15.8526 85.5958,11.8086 C79.8038,7.0166 79.0638,1.0006 79.0638,1.0006 L64.5598,4.9166 L90.3998,26.5466 L95.6518,16.2146 Z" id="Stroke-93" stroke="#0B0B09" stroke-linejoin="bevel"></path>
                <path d="M61.9448,81.9266 L90.4008,26.5466 L64.5588,4.9166 L47.4828,9.3486 C47.4828,9.3486 54.6128,30.3146 51.0548,45.8966 C51.0548,45.8966 49.3848,62.0106 31.7668,62.3246 L31.7668,70.8126 L61.9448,81.9266 Z" id="Fill-95" fill="#FFFFFF"></path>
                <path d="M61.9448,81.9266 L90.4008,26.5466 L64.5588,4.9166 L47.4828,9.3486 C47.4828,9.3486 54.6128,30.3146 51.0548,45.8966 C51.0548,45.8966 49.3848,62.0106 31.7668,62.3246 L31.7668,70.8126 L61.9448,81.9266 Z" id="Stroke-97" stroke="#0B0B09" stroke-linejoin="bevel"></path>
                <path d="M154.6918,9.3064 C154.6918,9.3064 147.2138,31.3644 151.3698,46.8484 C155.5258,62.3344 164.8398,62.3164 170.3978,62.3244 L174.2958,63.5744 L179.2338,24.9244 L154.6918,9.3064 Z" id="Fill-99" fill="#FFFFFE"></path>
                <path d="M154.6918,9.3064 C154.6918,9.3064 147.2138,31.3644 151.3698,46.8484 C155.5258,62.3344 164.8398,62.3164 170.3978,62.3244 L174.2958,63.5744 L179.2338,24.9244 L154.6918,9.3064 Z" id="Stroke-101" stroke="#0B0B09" stroke-linejoin="bevel"></path>
                <polygon id="Fill-103" fill="#FFFFFE" points="179.2328 24.9236 200.2368 39.1056 182.0028 67.9276 174.2968 63.5756"></polygon>
                <polygon id="Stroke-105" stroke="#0B0B09" stroke-linejoin="bevel" points="179.2328 24.9236 200.2368 39.1056 182.0028 67.9276 174.2968 63.5756"></polygon>
                <polygon id="Fill-107" fill="#FFFFFE" points="245.6664 25.0868 225.5184 38.6908 243.0084 66.3388 250.4024 62.1648"></polygon>
                <polygon id="Stroke-109" stroke="#0B0B09" stroke-linejoin="bevel" points="245.6664 25.0868 225.5184 38.6908 243.0084 66.3388 250.4024 62.1648"></polygon>
                <polygon id="Fill-111" fill="#FFFFFE" points="411.0014 33.9442 418.0194 38.6822 400.5294 66.3302 393.1354 62.1542"></polygon>
                <polygon id="Stroke-113" stroke="#0B0B09" stroke-linejoin="bevel" points="411.0014 33.9442 418.0194 38.6822 400.5294 66.3302 393.1354 62.1542"></polygon>
                <polygon id="Fill-115" fill="#FFFFFE" points="342.8686 155.4724 256.6986 155.4724 256.0926 123.3064 294.7126 109.0264 328.0966 120.0364"></polygon>
                <polygon id="Stroke-117" stroke="#0B0B09" stroke-linejoin="bevel" points="342.8686 155.4724 256.6986 155.4724 256.0926 123.3064 294.7126 109.0264 328.0966 120.0364"></polygon>
                <polygon id="Fill-119" fill="#FFFFFE" points="386.9644 155.4724 342.8684 155.4724 328.0964 120.0364 387.3544 139.5824"></polygon>
                <polygon id="Stroke-121" stroke="#0B0B09" stroke-linejoin="bevel" points="386.9644 155.4724 342.8684 155.4724 328.0964 120.0364 387.3544 139.5824"></polygon>
                <polygon id="Fill-123" fill="#FFFFFE" points="363.8988 83.451 388.1108 74.499 387.3548 139.581"></polygon>
                <polygon id="Stroke-125" stroke="#0B0B09" stroke-linejoin="bevel" points="363.8988 83.451 388.1108 74.499 387.3548 139.581"></polygon>
                <polygon id="Fill-127" fill="#0000FF" points="363.8988 83.451 319.7108 99.925 328.0968 120.037 387.3548 139.581"></polygon>
                <polygon id="Stroke-129" stroke="#0B0B09" stroke-linejoin="bevel" points="363.8988 83.451 319.7108 99.925 328.0968 120.037 387.3548 139.581"></polygon>
                <polygon id="Fill-131" fill="#FFFFFE" points="319.7114 99.9256 328.0954 120.0376 294.7134 109.0256"></polygon>
                <polygon id="Stroke-133" stroke="#0B0B09" stroke-linejoin="bevel" points="319.7114 99.9256 328.0954 120.0376 294.7134 109.0256"></polygon>
                <polygon id="Fill-135" fill="#FFFFFE" points="294.7134 109.0262 255.7354 96.1702 256.0934 123.3062"></polygon>
                <polygon id="Stroke-137" stroke="#0B0B09" stroke-linejoin="bevel" points="294.7134 109.0262 255.7354 96.1702 256.0934 123.3062"></polygon>
                <path d="M374.438,10.1658 L358.106,5.8958 L338.636,23.1358 L363.898,83.4518 L388.112,74.4998 L388.32,66.3578 C388.32,66.3578 378.062,66.7778 373.512,59.2478 C368.964,51.7178 365.864,37.6098 374.438,10.1658" id="Fill-139" fill="#FFFFFE"></path>
                <path d="M374.438,10.1658 L358.106,5.8958 L338.636,23.1358 L363.898,83.4518 L388.112,74.4998 L388.32,66.3578 C388.32,66.3578 378.062,66.7778 373.512,59.2478 C368.964,51.7178 365.864,37.6098 374.438,10.1658 Z" id="Stroke-141" stroke="#0B0B09" stroke-linejoin="bevel"></path>
                <path d="M358.106,5.8954 L338.636,23.1374 L332.488,8.2834 C336.822,8.1894 342.39,9.4354 344.292,2.2314 L358.106,5.8954 Z" id="Fill-143" fill="#FFFFFE"></path>
                <path d="M358.106,5.8954 L338.636,23.1374 L332.488,8.2834 C336.822,8.1894 342.39,9.4354 344.292,2.2314 L358.106,5.8954 Z" id="Stroke-145" stroke="#0B0B09" stroke-linejoin="bevel"></path>
                <polygon id="Fill-147" fill="#FFFFFE" points="338.6352 23.1366 363.8992 83.4506 319.7112 99.9266 301.3812 55.9566"></polygon>
                <polygon id="Stroke-149" stroke="#0B0B09" stroke-linejoin="bevel" points="338.6352 23.1366 363.8992 83.4506 319.7112 99.9266 301.3812 55.9566"></polygon>
                <polygon id="Fill-151" fill="#FFFFFE" points="255.7358 96.1708 301.3818 55.9568 319.7118 99.9248 294.7138 109.0268"></polygon>
                <polygon id="Stroke-153" stroke="#0B0B09" stroke-linejoin="bevel" points="255.7358 96.1708 301.3818 55.9568 319.7118 99.9248 294.7138 109.0268"></polygon>
                <path d="M255.7358,96.1708 L255.3418,66.4208 C255.3418,66.4208 271.1638,66.2728 273.8218,49.2528 C276.4798,32.2308 269.2318,10.1908 269.2318,10.1908 L280.9998,7.0668 L301.3818,55.9568 L255.7358,96.1708 Z" id="Fill-155" fill="#FFFFFE"></path>
                <path d="M255.7358,96.1708 L255.3418,66.4208 C255.3418,66.4208 271.1638,66.2728 273.8218,49.2528 C276.4798,32.2308 269.2318,10.1908 269.2318,10.1908 L280.9998,7.0668 L301.3818,55.9568 L255.7358,96.1708 Z" id="Stroke-157" stroke="#0B0B09" stroke-linejoin="bevel"></path>
                <path d="M281.0004,7.0672 L299.3704,2.2312 C299.3704,2.2312 299.3904,8.3412 308.6844,8.3292 C317.9804,8.3172 332.4884,8.2832 332.4884,8.2832 L338.6344,23.1372 L301.3804,55.9572 L281.0004,7.0672 Z" id="Fill-159" fill="#FFFFFE"></path>
                <path d="M281.0004,7.0672 L299.3704,2.2312 C299.3704,2.2312 299.3904,8.3412 308.6844,8.3292 C317.9804,8.3172 332.4884,8.2832 332.4884,8.2832 L338.6344,23.1372 L301.3804,55.9572 L281.0004,7.0672 Z" id="Stroke-161" stroke="#0B0B09" stroke-linejoin="bevel"></path>
                <path d="M273.8218,49.2518 C276.4798,32.2298 269.2318,10.1898 269.2318,10.1898 L269.2538,10.1838 C269.2238,10.1338 269.2078,10.1078 269.2078,10.1078 L245.6658,25.0858 L250.4018,62.1638 L254.1438,60.9638 L255.3418,66.4218 C255.3418,66.4218 271.1638,66.2738 273.8218,49.2518" id="Fill-163" fill="#FFFFFE"></path>
                <path d="M273.8218,49.2518 C276.4798,32.2298 269.2318,10.1898 269.2318,10.1898 L269.2538,10.1838 C269.2238,10.1338 269.2078,10.1078 269.2078,10.1078 L245.6658,25.0858 L250.4018,62.1638 L254.1438,60.9638 L255.3418,66.4218 C255.3418,66.4218 271.1638,66.2738 273.8218,49.2518 Z" id="Stroke-165" stroke="#0B0B09" stroke-linejoin="bevel"></path>
                <path d="M374.437,10.1678 C365.865,37.6098 368.963,51.7178 373.513,59.2478 C378.061,66.7778 388.321,66.3578 388.321,66.3578 L393.137,62.1558 L411.001,33.9438 L374.437,10.1678 Z" id="Fill-167" fill="#FFFFFE"></path>
                <path d="M374.437,10.1678 C365.865,37.6098 368.963,51.7178 373.513,59.2478 C378.061,66.7778 388.321,66.3578 388.321,66.3578 L393.137,62.1558 L411.001,33.9438 L374.437,10.1678 Z" id="Stroke-169" stroke="#0B0B09" stroke-linejoin="bevel"></path>
                <polygon id="Fill-171" fill="#FFFFFE" points="9.348 34.2372 2 39.1972 20.31 68.1432 28.052 63.7732"></polygon>
                <polygon id="Stroke-173" stroke="#0B0B09" stroke-linejoin="bevel" points="9.348 34.2372 2 39.1972 20.31 68.1432 28.052 63.7732"></polygon>
                <path d="M48.9096,52.9042 C49.7096,51.2642 50.4316,49.3442 51.0416,47.0942 C51.1796,46.4202 51.2216,46.0202 51.2216,46.0202 C54.7336,30.6422 47.8796,10.0442 47.6416,9.3362 L9.3476,34.2382 L28.0516,63.7722 L31.8516,62.5542 L31.8516,62.5182 C41.6016,62.3442 46.4876,57.3522 48.9096,52.9042" id="Fill-175" fill="#FFFFFE"></path>
                <path d="M48.9096,52.9042 C49.7096,51.2642 50.4316,49.3442 51.0416,47.0942 C51.1796,46.4202 51.2216,46.0202 51.2216,46.0202 C54.7336,30.6422 47.8796,10.0442 47.6416,9.3362 L9.3476,34.2382 L28.0516,63.7722 L31.8516,62.5542 L31.8516,62.5182 C41.6016,62.3442 46.4876,57.3522 48.9096,52.9042 Z" id="Stroke-177" stroke="#0B0B09" stroke-linejoin="bevel"></path>
                <polygon id="Fill-179" fill="#FFFFFE" points="9.348 34.2372 2 39.1972 20.31 68.1432 28.052 63.7732"></polygon>
                <polygon id="Stroke-181" stroke="#0B0B09" stroke-linejoin="bevel" points="9.348 34.2372 2 39.1972 20.31 68.1432 28.052 63.7732"></polygon>
                <path d="M48.9096,52.9042 C49.7096,51.2642 50.4316,49.3442 51.0416,47.0942 C51.1796,46.4202 51.2216,46.0202 51.2216,46.0202 C54.7336,30.6422 47.8796,10.0442 47.6416,9.3362 L9.3476,34.2382 L28.0516,63.7722 L31.8516,62.5542 L31.8516,62.5182 C41.6016,62.3442 46.4876,57.3522 48.9096,52.9042" id="Fill-183" fill="#FFFFFE"></path>
                <path d="M48.9096,52.9042 C49.7096,51.2642 50.4316,49.3442 51.0416,47.0942 C51.1796,46.4202 51.2216,46.0202 51.2216,46.0202 C54.7336,30.6422 47.8796,10.0442 47.6416,9.3362 L9.3476,34.2382 L28.0516,63.7722 L31.8516,62.5542 L31.8516,62.5182 C41.6016,62.3442 46.4876,57.3522 48.9096,52.9042 Z" id="Stroke-185" stroke="#0B0B09" stroke-linejoin="bevel"></path>
            </g>
        </g>
    </g>
</svg>