<?xml version="1.0" encoding="UTF-8"?>
<svg width="283px" height="237px" viewBox="0 0 283 237" version="1.1" xmlns="http://www.w3.org/2000/svg" xmlns:xlink="http://www.w3.org/1999/xlink">
    <!-- Generator: Sketch 63.1 (92452) - https://sketch.com -->
    <title>shirt1</title>
    <desc>Created with Sketch.</desc>
    <g id="MSCHFX" stroke="none" stroke-width="1" fill="none" fill-rule="evenodd">
        <g id="Desktop-|-Launch-State" transform="translate(-715.000000, -163.000000)">
            <g id="HOMEPAGE" transform="translate(161.000000, 52.000000)">
                <g id="SHIRT-PIECE-MODAL" transform="translate(538.000000, 56.000000)">
                    <g id="ShirtViews" transform="translate(16.149999, 41.649998)">
                        <g id="shirt1" transform="translate(0.000000, 13.599999)">
                            <path d="M231.22062,129.442185 L231.0564,102.802251 L248.210844,113.494401 L282.238298,58.901963 L216.988815,14.8475699 L201.572961,9.89241008 L171.957432,0.373005484 C167.701992,13.1565799 155.479503,22.4159696 141.320884,22.6426645 C139.028944,22.6057745 136.788769,22.3290996 134.623564,21.8423896 L134.622374,21.8447696 L134.614639,21.8400096 C128.334414,20.4262896 122.697979,17.2180498 118.3283,12.78411 C114.9011,9.30752511 112.25097,5.08064529 110.68374,0.373005484 L81.9857011,9.5978851 L65.6523567,14.8475699 L11.729889,51.1044883 L0.402874483,58.901963 L34.4309231,113.494401 L48.7376974,104.402801 L51.5847723,102.802251 L51.3009573,111.373226 L50.9921524,183.390238 L50.7612924,200.226952 L50.7612924,236.362491 L100.584805,236.362491 L231.87988,236.362491 L231.53121,179.771448 L231.347355,148.571434 L231.22062,129.442185" id="Stroke-1" stroke="#020303" stroke-width="0.594999975" fill="#EFEFFF"></path>
                            <path d="M128.208631,177.845612 L100.584567,236.362669 L50.7610544,236.362669 L50.7610544,200.227131 L128.208631,177.845612 Z M145.93844,146.438419 L183.313959,162.141658 L128.208631,177.845493 L145.93844,146.438419 Z M171.95767,0.373124484 L201.573199,9.89252908 L174.339455,81.9619011 L124.733117,41.2763978 L134.623802,21.8419136 C136.789007,22.3292186 139.028587,22.6058935 141.320527,22.6427835 C155.479741,22.4154936 167.70223,13.1566989 171.95767,0.373124484 L171.95767,0.373124484 Z" id="Fill-22" class="section" fill="#020303"></path>
                        </g>
                    </g>
                </g>
            </g>
        </g>
    </g>
</svg>
