<?xml version="1.0" encoding="utf-8"?>
<!-- Generator: Adobe Illustrator 24.1.0, SVG Export Plug-In . SVG Version: 6.00 Build 0)  -->
<svg version="1.1" id="Layer_1" xmlns="http://www.w3.org/2000/svg" xmlns:xlink="http://www.w3.org/1999/xlink" x="0px" y="0px"
	 viewBox="0 0 69 391" style="enable-background:new 0 0 69 391;" xml:space="preserve">
<style type="text/css">
	.st0{fill-rule:evenodd;clip-rule:evenodd;fill:#010202;}
	.st1{fill-rule:evenodd;clip-rule:evenodd;}
</style>
<g id="Pre-Drop">
	<g id="Mobile-_x7C_-Launch-State" transform="translate(-314.000000, -174.000000)">
		<g id="HOMEPAGE" transform="translate(-13.000000, 173.000000)">
			<g id="FPO--3D-render" transform="translate(44.000000, 1.000000)">
				<g id="brandlogos" transform="translate(283.000000, 0.000000)">
					<path id="offwhite" class="st0" d="M42.6,328c0,0.1-0.1,1.4-0.1,2.8c0,2.2,0,2.6,0.1,2.6c0.1,0,1.9,0.1,4,0.1
						c2.1,0,3.9,0,4,0.1c0.2,0.1,0.1,0.2-0.5,0.8c-0.2,0.3-0.9,0.9-1.4,1.5c-0.5,0.6-1,1.1-1,1.1c-1.7,1.8-3,3.2-7.7,7.9
						c-3.1,3.1-5.7,5.7-5.7,5.7c-0.1,0-0.1,0-0.2-0.1c0,0-3.1-3.2-6.8-7c-3.7-3.8-7.3-7.4-7.9-8c-0.6-0.6-1.1-1.2-1.2-1.3
						c-0.1-0.1-0.2-0.3-0.3-0.4l-0.1-0.2l0.8,0.1c0.5,0,2.3,0.1,4,0.1c2.5,0,3.2,0,3.2-0.1c0-0.1,0.1-1.3,0-2.8l0-2.7L24,328
						c-1.1,0-5.1-0.1-9-0.1l-7.1,0l0,1.7c0,0.9,0,1.8,0,2c0,0.2,0,3.6,0,7.6c0,5.9,0,7.3,0.1,7.4c0.2,0.1,5.3,0.1,5.4,0
						c0.1-0.1,0.1-1.2,0.1-4.5c0-2.4,0-4.4,0.1-4.4c0,0,0.4,0.3,0.7,0.7c0.4,0.4,2.2,2.2,3.9,4c1.8,1.8,5.2,5.3,7.6,7.8
						c2.4,2.5,4.4,4.5,4.4,4.6c0,0.2,0.6-0.5-7.1,7.4c-3.5,3.6-7.1,7.3-7.9,8.1c-0.8,0.9-1.6,1.6-1.6,1.6s-0.1-1.9-0.1-4.2l0-4.2
						l-2.7,0l-2.7,0l-0.1,1c0,0.5-0.1,4.6-0.2,9.1c-0.1,7.1-0.1,8.2,0,8.3c0.1,0,3.8,0.1,9.2,0.1l9,0l0-2.8c0-2.1,0-2.8-0.1-2.8
						c-0.1,0-1.9-0.1-4.1-0.1c-3.2,0-4,0-4-0.1c0-0.1,1.1-1.3,10-10.3c3.4-3.5,6.3-6.4,6.4-6.6c0.1-0.1,0.2-0.2,0.3-0.2
						c0.1,0,0.6,0.5,1.1,1c1.1,1.2,15.1,15.4,15.6,15.8c0.6,0.6,0.7,0.5-4.1,0.5l-4.4,0l-0.1,2.7c-0.1,2.2,0,2.7,0.1,2.8
						c0.1,0.1,1.1,0.1,5.5,0.2c3,0,7,0.1,8.9,0.2c2,0,3.6,0.1,3.6,0c0.1-0.1,0.1-5.3,0-8.7c0-1.7-0.1-4.6-0.1-6.5
						c0-1.9,0-3.6-0.1-3.6c-0.1-0.1-0.7-0.1-2.8,0l-2.7,0.1v4.1c0,2.2,0,4.1-0.1,4.1c0,0-0.9-0.8-2-1.9c-1.1-1.1-4.7-4.8-8.1-8.3
						c-3.4-3.5-6.2-6.4-6.3-6.4c-0.1-0.2,0-0.2,4.5-4.8c5.1-5.2,6.6-6.7,9.3-9.5c1.4-1.4,2.5-2.5,2.6-2.5c0.1,0,0.1,1.5,0.1,4.5
						l0,4.5h5.5l0.1-9.3c0-6,0-9.3,0-9.4c-0.1-0.2-0.1-0.2-2.9-0.2c-1.5,0-5.6-0.1-9-0.1l-6.2,0L42.6,328z M7.7,308.7
						c0,0.1,0,3.8,0,8.2l0,8.1l26.5,0c14.6,0,26.5,0,26.6,0c0.1,0,0.1-1.7,0.1-8.2l0-8.2l-26.5,0C13.1,308.6,7.7,308.7,7.7,308.7
						L7.7,308.7z"/>
					<path id="chinatownmarket" class="st0" d="M44.6,295.2c0.2,0.7,0.4,1.5,0.6,2.3c0,0.2-0.1,0.5-0.3,0.6
						c-0.2,0.1-0.4-0.1-0.6-0.3c-0.2-0.3-0.4-0.6-0.7-0.9c-0.1-0.1-0.2-0.2-0.4-0.3c-0.2-0.1-0.4-0.1-0.4,0.2c0,0.5,0,1,0,1.6
						c0,0.1,0.1,0.2,0.1,0.2c0.1,0,0.1-0.1,0.2-0.1c0,0,0,0,0,0c0.4-0.6,0.6-0.6,0.9,0.1c0.3,0.6,0.4,1.2,0.6,1.8c0,0.1,0,0.1,0,0.2
						c0,0.2,0,0.5-0.3,0.6c-0.2,0-0.4-0.1-0.6-0.2c-0.2-0.1-0.3-0.4-0.5-0.5c-0.1-0.1-0.3-0.2-0.5-0.3c-0.1,0.2-0.1,0.3-0.2,0.5
						c0,0.4,0,0.7,0,1.1c0,0.4,0,0.8,0,1.2c0,0.5,0.3,0.7,0.7,0.4c0.3-0.2,0.5-0.4,0.7-0.7c0.1-0.1,0.2-0.4,0.3-0.5
						c0.1-0.1,0.4-0.3,0.5-0.2c0.1,0,0.3,0.3,0.3,0.5c0,0.1,0,0.3,0,0.5c-0.2,0.6-0.3,1.2-0.5,1.8c-0.2,0.5-0.3,0.5-0.8,0.4
						c-0.2-0.1-0.5-0.1-0.7-0.1c-0.7,0-1.3,0-2,0c-0.6,0-0.7-0.3-0.5-0.8c0.1-0.3,0.2-0.6,0.2-0.9c0-2,0-4,0-6
						c0-0.3-0.1-0.6-0.2-0.9c-0.2-0.6-0.1-0.8,0.6-0.8c0.5,0,1.1,0,1.6,0c0.3,0,0.7-0.1,1-0.2C44.3,294.8,44.5,294.9,44.6,295.2z
						 M16.9,295.1c0.4,0,0.6,0.3,0.4,0.6c-0.2,0.4-0.1,0.7,0,1.1c0.1,0.6,0.3,1.3,0.4,1.9c0,0.1,0.1,0.1,0.1,0.2
						c0-0.1,0.1-0.1,0.1-0.2c0.2-0.8,0.4-1.6,0.5-2.4c0-0.2,0-0.4-0.1-0.5c-0.2-0.5,0-0.8,0.5-0.8c0.4,0,0.7,0,1.1,0
						c0.4,0,0.6,0.2,0.5,0.6c-0.3,0.6-0.2,1.3-0.1,1.9c0.1,1.5,0.2,3,0.3,4.5c0.1,0.6,0,1.2,0.3,1.8c0.2,0.4,0,0.7-0.5,0.7
						c-0.4,0-0.9,0-1.3,0c-0.4,0-0.7-0.3-0.5-0.7c0.5-0.9,0.1-1.9,0.1-2.8c0,0,0-0.1-0.1-0.1c0,0.1-0.1,0.1-0.1,0.2
						c-0.2,0.8-0.4,1.5-0.6,2.3c-0.1,0.2-0.2,0.5-0.3,0.6c-0.3,0-0.3-0.3-0.4-0.5c-0.2-0.8-0.4-1.5-0.6-2.3c0-0.1-0.1-0.2-0.2-0.4
						c0,0.1,0,0.2-0.1,0.3c0,0.4-0.1,0.8-0.1,1.3c0,0.4-0.1,0.9,0.2,1.4c0.2,0.4,0,0.8-0.5,0.7c-0.3,0-0.6,0-0.9,0
						c-0.4,0-0.6-0.3-0.4-0.6c0.5-0.8,0.3-1.7,0.4-2.6c0.1-1.4,0.2-2.7,0.2-4.1c0-0.5,0.1-1-0.2-1.4c-0.2-0.4,0-0.7,0.5-0.7
						C16.1,295.1,16.5,295.1,16.9,295.1z M24.4,295.1c0.5,0,0.5,0.1,0.6,0.5c0.3,1.7,0.7,3.5,1,5.2c0.1,0.6,0.2,1.1,0.3,1.7
						c0.1,0.4,0.3,0.7,0.4,1.1c0,0.1,0.1,0.2,0.2,0.4c0.1,0.3-0.1,0.6-0.5,0.6c-0.3,0-0.5,0-0.8,0c-0.3,0-0.5,0-0.8,0
						c-0.4,0-0.6-0.3-0.5-0.7c0,0,0-0.1,0-0.1c0.1-0.2,0.4-0.4,0.1-0.6c-0.2-0.1-0.5-0.2-0.7-0.1c-0.3,0-0.4,0.2-0.3,0.5
						c0.1,0.2,0.2,0.4,0.2,0.6c0,0.2-0.1,0.4-0.4,0.4c-0.4,0-0.8,0-1.3,0c-0.3,0-0.5-0.3-0.4-0.6c0.9-1.8,0.8-3.8,1.2-5.6
						c0.2-0.9,0.3-1.8,0.4-2.7c0.1-0.5,0.2-0.6,0.7-0.6C24.2,295.1,24.3,295.1,24.4,295.1z M30.7,295.2c1.3,0.4,2,1.5,2.2,2.9
						c0.1,1,0,1.9-0.7,2.6c-0.1,0.1-0.1,0.3-0.1,0.4c0.2,0.9,0.3,1.8,0.7,2.7c0.3,0.5,0.1,0.8-0.5,0.8c-0.4,0-0.7,0-1.1,0
						c-0.4,0-0.7-0.3-0.5-0.6c0.3-0.5,0.1-1,0-1.5c-0.1-0.3-0.1-0.6-0.2-0.9c0-0.1-0.1-0.1-0.2-0.1c0,0.1-0.1,0.1-0.1,0.2
						c0,0.3,0,0.6,0,0.9c0,0.5,0,1,0.2,1.5c0.2,0.3,0,0.6-0.4,0.6c-0.5,0-0.9,0-1.4,0c-0.5,0-0.7-0.3-0.5-0.8
						c0.2-0.4,0.2-0.8,0.2-1.3c0-1.9,0-3.8,0-5.6c0-0.3-0.1-0.7-0.2-1c-0.2-0.5,0-0.9,0.5-0.9C29.3,295,30.1,295,30.7,295.2z
						 M36.2,295.1c0.5,0,0.7,0.3,0.5,0.8c-0.2,0.4-0.2,0.7-0.2,1.1c0,0.1,0,0.1,0.1,0.2c0.1,0,0.1-0.1,0.2-0.1
						c0.2-0.2,0.4-0.5,0.5-0.7c0.1-0.1,0-0.4,0-0.5c-0.2-0.5,0-0.7,0.5-0.7c0.3,0,0.7,0,1,0l0.1,0c0.2,0,0.3,0,0.4,0.2
						c0.1,0.3,0,0.5-0.2,0.7c-0.3,0.4-0.6,0.7-0.9,1.1c-0.1,0.1-0.1,0.4-0.1,0.6c0.3,1.7,0.7,3.4,1,5.1c0.1,0.3,0.2,0.6,0.3,0.8
						c0.3,0.5,0.1,0.9-0.5,0.9c-0.4,0-0.8,0-1.3,0c-0.4,0-0.7-0.3-0.5-0.7c0.2-0.4,0.1-0.7,0.1-1.1c-0.2-1-0.4-2-0.6-3
						c0-0.1-0.1-0.1-0.1-0.2c0,0.1-0.1,0.1-0.1,0.2c0,0.6,0,1.2,0,1.7h0c0,0.5,0,0.9,0,1.4c0,0.3,0.1,0.7,0.2,1
						c0.2,0.5,0.1,0.8-0.5,0.8c-0.4,0-0.9,0-1.3,0c-0.5,0-0.7-0.3-0.5-0.7c0.2-0.5,0.3-0.9,0.3-1.4c0-1.8,0-3.6,0-5.4
						c0-0.4,0-0.8-0.2-1.2c-0.3-0.5,0-0.8,0.5-0.8C35.3,295.1,35.7,295.1,36.2,295.1z M51.1,295.3c0.2,0.8,0.4,1.7,0.3,2.6
						c0,0.2-0.2,0.4-0.3,0.4c-0.2,0-0.4-0.1-0.5-0.3c-0.1-0.2-0.2-0.5-0.3-0.7c-0.1-0.2-0.1-0.3-0.2-0.5c-0.1-0.1-0.2-0.1-0.3-0.2
						c0,0.1-0.1,0.2-0.1,0.3c0,1.1,0,2.1,0,3.2c0,0.9,0,1.9,0,2.8c0,0.3,0.1,0.6,0.2,0.9c0.2,0.5,0,0.8-0.5,0.8c-0.4,0-0.9,0-1.3,0
						c-0.5,0-0.7-0.3-0.5-0.7c0.2-0.4,0.2-0.8,0.2-1.2l0-0.2c0-1.8,0-3.7,0-5.5c0-0.2-0.1-0.3-0.1-0.5c-0.1,0.1-0.3,0.2-0.3,0.4
						c-0.2,0.3-0.2,0.6-0.4,0.9c-0.1,0.1-0.3,0.3-0.4,0.3c-0.1,0-0.3-0.2-0.3-0.4c-0.1-0.2,0-0.5,0-0.8c0.1-0.5,0.1-1.1,0.3-1.6
						c0.1-0.4,0.3-0.5,0.7-0.4c0.2,0.1,0.4,0.1,0.6,0.1c0.9,0,1.7,0.1,2.6-0.1C50.9,294.9,51.1,295,51.1,295.3z M24.1,300
						c0,0.1-0.1,0.1-0.1,0.2c-0.1,0.3-0.1,0.7-0.2,1.1c0,0.1,0.1,0.2,0.2,0.3c0,0,0.3,0,0.3,0c0.1-0.1,0.1-0.3,0.1-0.4
						c0-0.3-0.1-0.6-0.2-0.9C24.2,300.1,24.1,300.1,24.1,300z M30.3,296.3c0,0.1-0.1,0.3-0.1,0.4c0,1,0,1.9,0,2.9
						c0,0.1,0.1,0.3,0.2,0.4c0.1-0.1,0.4-0.2,0.4-0.3c0.1-0.4,0.2-0.7,0.3-1.2c-0.1-0.6-0.3-1.3-0.4-1.9
						C30.6,296.5,30.5,296.4,30.3,296.3z M33.5,258.8c8.9,0.1,16.4,7.4,16.3,16.7c-0.1,9-7.5,16.2-16.3,16.2
						c-8.9,0.1-16.5-7.3-16.4-16.7C17.1,266.1,24.4,258.7,33.5,258.8z M33.4,259.8c-8.5,0-15.1,6.9-15.4,14.9
						c-0.3,8.7,6.7,15.8,15.1,15.9c8.8,0.1,15.7-7.1,15.6-15.4C48.8,266.9,41.9,259.8,33.4,259.8z M23.4,274.7
						c0,0.1-0.1,0.3-0.2,0.4c-0.4,0.5-0.3,1.1-0.1,1.6c0.8,1.7,1.7,3.3,2.9,4.7c1.2,1.4,2.6,2.5,4.3,3.2c1,0.4,2.1,0.7,3.2,0.7
						c1.9,0,3.6-0.7,5.1-1.8c1.8-1.4,3.1-3.1,4.1-5.2c0.4-0.8,0.6-1.6,0.3-2.5c0-0.1-0.1-0.3-0.1-0.4c0-0.3,0-0.5,0.3-0.6
						c0.3-0.1,0.5,0,0.6,0.3c0.2,0.3,0.3,0.5,0.4,0.8c0.3,0.9,0.5,1.8,0.8,2.7c0,0.1,0.1,0.3,0,0.5c0,0.1-0.1,0.3-0.3,0.4
						c-0.1,0-0.3,0-0.5-0.1c-0.1,0-0.1-0.1-0.1-0.2c-0.3-0.5-0.3-0.5-0.6,0c-0.7,1.3-1.4,2.5-2.3,3.6c-1.3,1.6-2.9,2.9-4.9,3.6
						c-2.7,0.9-5.3,0.5-7.7-1c-1.8-1.1-3.2-2.7-4.3-4.4c-0.7-1-1.3-2.1-1.9-3.2c0-0.1-0.1-0.1-0.1-0.2c-0.3-0.5-0.3-0.4-0.6,0
						c-0.1,0.2-0.3,0.3-0.5,0.3c-0.3,0-0.4-0.3-0.3-0.5c0.1-1.2,0.4-2.3,1.5-2.9c0.1-0.1,0.3-0.1,0.4-0.2
						C23.3,274.2,23.5,274.4,23.4,274.7z M37.7,265.8c0.5,0.1,0.8,0.3,0.9,0.6c0.2,0.6,0.5,1.2,0.6,1.8c0.2,1.3,0.2,2.7-0.4,3.9
						c-0.1,0.2-0.2,0.3-0.3,0.5c-0.5,0.7-1.2,0.7-1.6-0.1c-0.3-0.6-0.5-1.2-0.6-1.9c-0.2-1.1-0.1-2.3,0.2-3.4
						c0.1-0.4,0.4-0.8,0.6-1.1C37.3,266,37.6,265.9,37.7,265.8z M29.3,266.2c0.4,0.5,0.6,1.1,0.7,1.8c0.2,1.2,0.2,2.4-0.2,3.6
						c-0.1,0.4-0.3,0.8-0.5,1.1c-0.4,0.5-0.9,0.5-1.3,0.1c-0.4-0.5-0.6-1.1-0.7-1.8c-0.1-0.5-0.1-1-0.2-1.6c0-0.9,0.1-1.9,0.5-2.7
						c0.1-0.2,0.2-0.4,0.3-0.6C28.4,265.7,28.9,265.7,29.3,266.2z M56.5,255c0.2,0.2,0.4,0.4,0.5,0.7c0.1,0.1,0.1,0.2,0.2,0.4
						c-0.1,0.2-0.1,0.3-0.2,0.5l-1.1,2.1l0,0c0,0.1,0,0.2-0.1,0.2c0.1,0,0.1-0.1,0.2-0.1c0.2-0.2,0.5-0.3,0.7-0.5
						c0.2-0.2,0.5-0.5,0.7-0.8c0.3-0.5,0.6-0.5,1-0.1c0.2,0.2,0.3,0.4,0.5,0.6c0.3,0.4,0.2,0.8-0.3,0.8c-0.4,0.1-0.8,0.3-1.1,0.6
						c-1.8,1.4-3.6,2.9-5.4,4.3c-0.5,0.4-0.8,0.3-1.1-0.3c-0.1-0.3-0.1-0.5,0.1-0.6c0.8-0.4,1.1-1.2,1.5-1.9c0.3-0.6,0.6-1.2,1-1.7
						c0-0.1,0.1-0.1,0.1-0.2c-0.1,0-0.2,0-0.2,0.1c-0.8,0.6-1.6,1.3-2.5,2c-0.2,0.1-0.3,0.3-0.4,0.5c-0.2,0.5-0.6,0.5-0.9,0.1
						c-0.2-0.2-0.4-0.4-0.5-0.7c-0.2-0.4-0.1-0.7,0.3-0.8c0.4-0.1,0.7-0.3,1-0.5c1.5-1.2,3.1-2.4,4.6-3.7c0.2-0.2,0.4-0.5,0.6-0.7
						C55.8,254.6,56.1,254.5,56.5,255z M9.8,255.8c0.8,0.2,1.6,0.6,2.2,1.1c0.1,0.1,0.2,0.2,0.2,0.3c0.1,0.3,0,0.5-0.3,0.5
						c-0.3,0-0.5,0-0.8-0.1c-0.3-0.1-0.7-0.2-1-0.2c-0.3,0-0.4,0.2-0.2,0.4c0.2,0.3,0.4,0.5,0.6,0.7c1.1,0.9,2.2,1.7,3.4,2.6
						c0.3,0.2,0.7,0.3,1,0.5c0.1,0,0.4,0,0.5-0.2c0.1-0.1,0.1-0.4,0-0.5c-0.2-0.3-0.5-0.5-0.8-0.8c-0.2-0.2-0.5-0.4-0.7-0.6
						c-0.1-0.1-0.2-0.4-0.1-0.5c0.1-0.1,0.3-0.2,0.5-0.2c1.1,0,2.7,1.7,2.7,2.8c0,1.2-1.1,1.9-2,1.8c-0.9,0-1.7-0.3-2.4-0.8
						c-1.4-0.9-2.6-2-3.4-3.4c-0.3-0.4-0.4-1-0.5-1.5c-0.1-0.4,0-0.8,0.3-1.1c0.2-0.2,0.3-0.3,0.4-0.5
						C9.3,255.8,9.5,255.7,9.8,255.8z M16.3,250.6c0.1,0.3,0.2,0.7,0.5,0.9c1.2,1.5,2.5,3.1,3.7,4.6c0.2,0.3,0.5,0.5,0.8,0.7
						c0.5,0.2,0.5,0.6,0.1,0.9c-0.3,0.3-0.6,0.5-0.9,0.7c-0.2,0.2-0.5,0.3-0.8,0.2l-0.1,0l0,0.1c0.1,0.3,0,0.5-0.3,0.7
						c-0.3,0.2-0.6,0.5-0.9,0.8c-0.4,0.3-0.8,0.2-0.9-0.3c-0.1-0.4-0.2-0.7-0.5-0.9l-2.6-3.2c-0.4-0.5-0.9-1.1-1.3-1.6
						c-0.2-0.2-0.4-0.3-0.6-0.5c-0.5-0.3-0.5-0.6-0.1-0.9c0.3-0.3,0.7-0.6,1-0.8c0.4-0.3,0.8-0.2,0.8,0.3c0.1,0.5,0.4,0.9,0.7,1.2
						c0.3,0.3,0.6,0.7,0.8,1c0.2,0.2,0.3,0.1,0.5,0c0.2-0.1,0.3-0.2,0.1-0.4c-0.4-0.5-0.8-1-1.2-1.5c-0.1-0.2-0.4-0.3-0.6-0.4
						c-0.4-0.2-0.5-0.6-0.1-0.9c0.3-0.3,0.7-0.6,1.1-0.9C15.8,250,16.1,250.1,16.3,250.6z M50.2,249.5c0.3,0.2,0.7,0.5,1,0.7
						c0.4,0.3,0.3,0.8-0.2,0.9c-0.3,0.1-0.5,0.3-0.7,0.6c-0.3,0.6-0.7,1.2-1.1,1.7c-0.1,0.1-0.1,0.2-0.1,0.3c0.1,0,0.2-0.1,0.2-0.1
						c0.5-0.4,0.9-0.8,1.4-1.3c0.4-0.3,0.5-0.3,0.8-0.1c0.3,0.2,0.3,0.4,0.1,0.8c-0.2,0.5-0.5,0.9-0.8,1.4c0,0,0,0.1,0,0.2l0.1,0
						c0,0,0,0,0,0c0.5-0.5,1-1.1,1.4-1.6c0.1-0.1,0.2-0.4,0.2-0.6c0.1-0.5,0.5-0.7,0.9-0.3c0.2,0.2,0.5,0.3,0.7,0.5
						c0.3,0.3,0.3,0.7-0.1,0.9c-0.5,0.2-0.8,0.6-1.2,1c-1.5,1.6-3,3.2-4.5,4.8c-0.4,0.4-0.6,0.4-1,0.1c-0.4-0.3-0.5-0.5-0.2-0.9
						c0.3-0.6,0.7-1.2,1-1.9c0-0.1,0-0.2,0.1-0.2l-0.1,0.1c0,0,0,0-0.1,0c-0.5,0.5-1,1-1.6,1.4c-0.4,0.4-0.9,0.3-1.2-0.2
						c0-0.1-0.1-0.2-0.1-0.3c0.1-0.2,0.2-0.4,0.3-0.6c1.1-2,2.3-3.9,3.4-5.9c0.2-0.3,0.3-0.7,0.4-1
						C49.5,249.3,49.8,249.2,50.2,249.5z M17.1,255.4c-0.1,0.1-0.3,0.2-0.1,0.5c0.4,0.4,0.7,0.9,1.1,1.3c0.4,0.5,0.8,1,1.3,1.2
						l0.2,0.1l0-0.2c-0.1-0.3-0.1-0.6-0.3-0.8c-0.5-0.7-1.1-1.4-1.7-2.1C17.4,255.3,17.3,255.3,17.1,255.4z M20.8,248.2
						c0.1,0.2,0.1,0.5,0.2,0.7c0.9,1.9,1.8,3.7,2.8,5.6c0.1,0.3,0.3,0.5,0.6,0.7c0.4,0.4,0.4,0.7-0.1,1c-0.4,0.2-0.8,0.4-1.2,0.6
						c-0.5,0.2-0.7,0-0.8-0.5c0-0.3-0.1-0.6-0.2-0.9c-0.9-1.8-1.8-3.6-2.7-5.4c-0.2-0.3-0.4-0.6-0.6-0.8c-0.4-0.4-0.4-0.7,0.1-1
						c0.3-0.2,0.7-0.4,1-0.5C20.6,247.3,20.9,247.6,20.8,248.2z M46.8,248.1c0.2,0.4,0.2,0.9,0.3,1.2c-0.2,2.4-0.9,4.4-2.4,6.2
						c-0.5,0.5-1,0.9-1.8,0.9c-1.2,0-2.1-0.8-2.1-2.1c0-0.7,0.1-1.3,0.3-1.9c0.5-1.7,1.3-3.2,2.6-4.5c0.3-0.3,0.7-0.5,1-0.7
						C45.6,246.8,46.5,247.1,46.8,248.1z M28.1,245.7c-0.1,0.5,0,1,0.1,1.4c0.5,2.1,1.1,4.2,1.6,6.3c0,0.1,0.1,0.2,0.1,0.3
						c0.1,0.5,0,0.7-0.4,0.8c-0.5,0.1-0.8,0-0.9-0.5c-0.1-0.5-0.3-0.9-0.6-1.3c-0.6-0.8-1.2-1.5-1.7-2.3c0-0.1-0.1-0.1-0.2-0.1
						l0,0.1c0,0,0,0,0,0.1c0.3,1,0.5,2.1,0.8,3.1c0.1,0.2,0.2,0.4,0.4,0.5c0.3,0.4,0.2,0.7-0.3,0.9c-0.3,0.1-0.6,0.2-0.9,0.2
						c-0.4,0.1-0.7-0.2-0.6-0.5c0.2-0.8-0.1-1.5-0.3-2.3c-0.4-1.6-0.8-3.1-1.2-4.7c-0.1-0.3-0.3-0.6-0.4-0.9
						c-0.3-0.5-0.2-0.8,0.3-0.9c1.3-0.3,1.1-0.5,1.9,0.6l0.6,0.8l0,0l0.6,0.8l0-0.2c-0.1-0.7-0.2-1.3-0.7-1.9
						c-0.3-0.4-0.2-0.8,0.3-0.9c0.3-0.1,0.5-0.1,0.8-0.2C27.9,245,28.2,245.3,28.1,245.7z M45,248.7c-0.2,0.2-0.4,0.5-0.5,0.8
						c-0.6,1.4-1.2,2.8-1.9,4.2c-0.1,0.2-0.1,0.5-0.1,0.7c0,0.1,0.1,0.4,0.2,0.4c0.1,0,0.3,0,0.4-0.1c0.2-0.2,0.3-0.4,0.4-0.6
						c0.7-1.5,1.3-2.9,1.9-4.4c0.1-0.2,0.1-0.5,0.2-0.8c-0.1-0.1-0.1-0.3-0.2-0.4C45.3,248.5,45.1,248.6,45,248.7z M38.3,244.9
						c0.2,0.1,0.3,0.1,0.5,0.2c0.9,0.2,1.8,0.3,2.7,0.5c0.1,0,0.3,0.2,0.4,0.3c0.1,0.2,0.1,0.4,0.1,0.7c-0.1,0.5-0.1,1-0.2,1.6
						c0,0.1-0.1,0.3-0.1,0.4c-0.1,0.1-0.2,0.3-0.3,0.3c-0.1,0-0.3-0.2-0.4-0.3c-0.1-0.3-0.1-0.6-0.2-0.8c-0.1-0.2-0.1-0.5-0.2-0.7
						c0-0.1-0.1-0.1-0.1-0.1c0,0-0.1,0.1-0.1,0.1c0,0.1-0.1,0.2-0.1,0.3c-0.4,1.9-0.8,3.8-1.2,5.7c-0.1,0.3,0,0.6,0,0.9
						c0.1,0.6-0.1,0.8-0.7,0.7c-0.4-0.1-0.8-0.2-1.2-0.3c-0.5-0.1-0.5-0.4-0.3-0.8c0.2-0.3,0.4-0.6,0.4-1c0.4-1.9,0.8-3.8,1.2-5.7
						c0-0.1,0-0.2,0-0.3c0-0.2-0.1-0.2-0.2-0.1c-0.2,0.3-0.4,0.5-0.6,0.8c-0.2,0.2-0.3,0.6-0.7,0.5c-0.4-0.1-0.3-0.5-0.2-0.8
						c0.2-0.6,0.5-1.3,0.7-1.9C37.8,244.7,37.9,244.7,38.3,244.9z M33.4,244.6c0.6,0,0.7,0,0.8,0.7c0.4,2.2,0.8,4.5,1.2,6.7
						c0.1,0.4,0.3,0.9,0.4,1.3c0.3,0.6,0.1,0.9-0.5,0.9c-0.2,0-0.4,0-0.6,0v0c-0.2,0-0.5,0-0.7,0c-0.5,0-0.7-0.4-0.5-0.8
						c0.1-0.2,0.4-0.4,0.1-0.6c-0.2-0.1-0.5-0.2-0.7-0.2c-0.3,0-0.4,0.2-0.3,0.5c0,0.1,0.1,0.2,0.2,0.3c0.2,0.5,0,0.7-0.5,0.7
						c-0.3,0-0.7,0-1,0c-0.4,0-0.6-0.3-0.5-0.6c0.8-1.8,0.8-3.7,1.2-5.6c0.2-0.9,0.3-1.8,0.5-2.7c0.1-0.4,0.2-0.5,0.6-0.5
						C33.2,244.6,33.3,244.6,33.4,244.6z M33.1,249.5c0,0-0.1,0.1-0.1,0.1c-0.1,0.4-0.1,0.8-0.2,1.1c0,0.2,0,0.4,0.3,0.3
						c0.1,0,0.2-0.2,0.3-0.2c-0.1-0.5-0.2-0.8-0.2-1.2C33.2,249.6,33.2,249.6,33.1,249.5z"/>
					<path id="kith" class="st0" d="M47.2,224.2v2.9h5.1v-5.8h3.1v15h-3.1V230h-5v6.3h-3.1v-15h3.1V224.2z M41.6,222.6v1.3h-3.8
						v12.3h-3.1V224h-3.7v-2.7h10.5V222.6z M28.7,228.8v7.5h-3.1v-15h3.1V228.8z M14.3,224.3c0,1.7,0,3,0,3c0,0,1-1.4,2.3-3l2.2-3
						h1.8c1,0,1.8,0,1.8,0c0,0-0.9,1.3-2.1,2.8l-2.1,2.8l0.1,0.2c0.1,0.1,1.1,2.2,2.4,4.6c1.3,2.5,2.3,4.5,2.3,4.5c0,0-0.8,0-1.7,0
						l-1.7,0l-1.7-3.4c-0.9-1.9-1.7-3.4-1.7-3.4c0,0-0.4,0.5-0.9,1.1l-0.9,1.1l0,2.3v2.3h-3.1v-15h3.1V224.3z M7.7,228.8V240h51.2
						v-22.4H7.7V228.8z"/>
					<path id="palace" class="st0" d="M50.9,202.4c1.1,0.5,1.4,0.9,1,2.3c-0.2,0.6-0.5,1.2-0.8,1.7h-2.9c0.2-0.7,0.8-1.3,0.7-2
						c-0.2-0.3-0.4-0.2-0.7-0.2c-0.4,0.1-0.7,0.3-0.9,0.6c-0.4,0.7-0.9,1.3-1.2,2c-0.6,1.1-1.1,2.2-1.7,3.4
						c-0.1,0.2-0.2,0.4-0.3,0.7c-0.1,0.3-0.2,0.5,0,0.8c0.6,0.2,1,0.1,1.4-0.4c0.4-0.5,0.7-1.1,1.1-1.7c0.1-0.1,0.2-0.3,0.3-0.5h2.9
						c-0.8,1.8-1.9,3.3-3.8,4.1c-1.3,0.5-2.6,0.6-4,0.2c-0.7-0.2-1.1-0.6-1.1-1.3c0-0.5,0.1-0.9,0.3-1.4c0.8-2.1,1.8-4,3.1-5.8
						c0.9-1.3,2.3-2.3,3.6-2.6C49.3,202.1,49.9,202.1,50.9,202.4z M42.9,202.6c-1,3.7-2,7.4-3,11.1h-3.2c0.2-0.6,0.4-1.2,0.7-1.9H35
						c-0.4,0.6-0.9,1.3-1.3,1.9H24c1.9-3.7,3.9-7.4,5.8-11.1h3c-1.5,2.9-3,5.8-4.5,8.7h3.6c-0.1,0.3-0.2,0.5-0.3,0.8l-0.1,0.2
						l0.1-0.1c0.1-0.1,0.2-0.2,0.3-0.3c2.3-3,4.6-5.9,6.9-8.9c0.1-0.1,0.2-0.2,0.3-0.3H42.9z M26.5,202.6c-1,3.7-2,7.4-3,11.1h-3.2
						c0.2-0.6,0.4-1.2,0.7-1.9h-2.3c-0.4,0.6-0.9,1.3-1.3,1.9h-3c0.1-0.4,7.8-10.4,8.5-11.1H26.5z M18.1,202.6c0.1,0,0.2,0,0.3,0
						c1.2,0.2,1.8,0.9,1.5,2c-0.7,2.4-2.2,4.1-4.7,4.7c-0.5,0.1-1,0.1-1.6,0.1c-0.3,0-0.6,0-0.9,0c-0.7,1.4-1.5,2.8-2.2,4.2H7.7
						c0.1-0.4,5.7-11.1,5.7-11.1l0.2,0C14.2,202.6,16.8,202.6,18.1,202.6z M60.4,202.6c-0.4,0.8-0.8,1.6-1.2,2.4h-3.8l-0.5,0.9
						c-0.2,0.3-0.3,0.6-0.5,0.9H58c-0.4,0.8-0.8,1.5-1.1,2.3h-3.6c-0.4,0.7-0.7,1.4-1.2,2.2h4c-0.4,0.9-0.8,1.6-1.2,2.4h-7
						c1.9-3.7,3.9-7.4,5.8-11.1H60.4z M39.7,205.1c-1.1,1.4-2.1,2.9-3.2,4.4h1.6C38.6,208,39.1,206.6,39.7,205.1z M23.3,205.1
						c-1,1.5-2,2.9-3.1,4.5h1.6C22.4,208,22.9,206.6,23.3,205.1L23.3,205.1L23.3,205.1z M15.3,204.7c-0.4,0.9-0.9,1.7-1.4,2.6
						c0.8,0.1,1.4,0,1.9-0.6c0.4-0.5,0.9-1.4,0.7-1.8C16.3,204.7,15.7,204.7,15.3,204.7z"/>
					<path id="BAPE" class="st0" d="M41.7,126.5c3.5,1.2,6.2,3.4,8.2,6.4c1.8,2.7,3.1,5.6,4.5,8.6c1.1,2.4,2,4.9,2.6,7.4
						c0.1,0.6,0.1,1.3,0.3,1.9c0.1,0.6,0.3,1.2,0.5,1.8c-0.5,0-1.1-0.2-1.3,0.6c-0.1,0.5,0.1,0.9,0.6,1.2c-0.5,0.4-0.5,0.8-0.4,1.4
						c0.2,2.1,0.2,4.1-0.2,6.2c-0.2,1.1-0.2,2.3,0.3,3.4c0,0.1-0.1,0.3-0.2,0.4c-0.6,0.7-1.1,1.5-1.3,2.5c-0.2,1,0.1,2,0.5,2.9
						c0.6,1.4,1.2,2.8,1.9,4.1c0.5,0.9,0.4,1.8,0.2,2.8c-0.5,2.1-1.7,3.9-3,5.6c-2.4,3.1-5.3,5.7-8.4,8.2c-1.2,1-2.5,1.9-3.7,2.8
						c-0.3,0.2-0.5,0.6-0.8,0.9c-0.8-0.5-1.3-0.4-1.9,0.4c-0.5,0.6-1,1.3-1.4,2c-0.4,0.5-0.8,0.8-1.4,0.9c-1.8,0.2-3.7,0.3-5.5,0
						c-0.5-0.1-1-0.2-1.5-0.5c-0.3-0.1-0.5-0.5-0.8-0.7c-0.1-0.1-0.2-0.3-0.4-0.5c-0.2-0.2-0.4-0.2-0.6,0.1
						c-0.1,0.2-0.2,0.4-0.3,0.6c-0.1,0.3-0.3,0.4-0.6,0.3c-1.3-0.5-2.3-1.4-3.2-2.4c-0.7-0.8-1.6-1.4-2.7-1.3
						c-0.6,0-1.1,0.2-1.5,0.6c-0.3,0.3-0.5,0.3-0.8,0.1c-0.6-0.5-1.2-1-1.8-1.6c-1.3-1.5-2.5-3-3.8-4.4c-1.3-1.5-2.8-2.9-4.5-3.9
						c0,0-0.1-0.1-0.2-0.1c0.3-0.2,0.6-0.4,0.9-0.6c0.6-0.5,0.8-1,0.4-1.6c-0.4-0.6-1-1-1.5-1.6c-0.1-0.1-0.1-0.1-0.3-0.2
						c0.2-0.1,0.3-0.1,0.4-0.2l0.6-0.3c0.2-0.1,0.4-0.2,0.6-0.3c0.3-0.2,0.4-0.6,0.3-1c-0.5-2.7-1.1-5.4-1.6-8.1
						c-0.5-2.8-0.8-5.7-0.7-8.6c0-1.5,0.4-2.9,0.6-4.3c0.2-1,0.2-2,0.3-3c0-0.8-0.4-1.3-1.2-1.5c-0.2-0.1-0.3-0.1-0.5-0.2
						c0.3-0.6,0.7-1.2,1-1.7c0.2-0.3,0.3-0.7,0.4-1c0.2-0.5,0.1-0.9-0.2-1.2c-0.3-0.3-0.5-0.6-0.8-0.9l-0.3-0.4l0.5-0.1
						c0.1,0,0.2-0.1,0.3-0.1c1.2-0.5,2-1.5,2-2.9c0-1-0.1-2-0.2-2.9c0-0.4-0.1-0.8,0-1.2c0-0.4,0.2-0.8,0.6-1c0.9-0.6,1.7-1.3,2.5-2
						c0.5-0.4,0.8-1,0.7-1.7c0-0.5,0.1-1.1,0.2-1.6l0.1,0.5c0,0.1,0,0.1,0.1,0.2c0.1,0.4,0.3,0.4,0.5,0.1c0.2-0.3,0.3-0.6,0.5-0.9
						c2.5-5.1,6.5-8.2,12.1-9.2C32.3,124.6,37,124.9,41.7,126.5z M24,163.4c-0.2,0.1-0.4,0.5-0.3,0.7c0,0.2,0.4,0.4,0.6,0.5
						c0.6,0.1,1.2,0.1,1.8,0.2c0.5,0,1-0.1,1.5-0.2c0.5-0.1,0.7-0.4,0.8-0.9c0-0.4-0.2-0.9-0.7-1C26.4,162.5,25.1,162.7,24,163.4z
						 M26.8,149.4c-2.2,0.2-5.5,2.4-5.7,5.6c0,0.3-0.1,0.5-0.1,0.8c-0.1,1.2-0.3,2.4-0.3,3.5c0,0.7,0.2,1.3,0.8,1.6
						c0.4,0.3,0.9,0.6,1.4,0.7c1.6,0.4,3.2,0.4,4.7,0.1c1.9-0.4,2.7-1.3,2.7-3c1.2-0.1,1.4-0.4,1.3-1.6c0-0.1,0-0.1,0-0.2
						c0-0.4,0.3-0.6,0.7-0.4c0.1,0.1,0.2,0.2,0.3,0.3c0.3,0.3,0.5,0.7,0.8,1.1c0.6,0.7,1.2,0.7,1.7-0.1c0.1-0.2,0.2-0.4,0.2-0.6
						c0-0.2-0.1-0.6-0.2-0.7c-0.8-0.6-1.3-1.4-1.7-2.2c-1-1.9-2.3-3.4-4.1-4.4C28.5,149.5,27.7,149.4,26.8,149.4z M16.4,151.8
						c-0.1,0.3-0.1,0.7-0.2,1c0.1,1.5,0.7,2.6,2,3.3c0.6,0.3,1,0.1,1.2-0.5c0.1-0.3,0.1-0.6,0.1-0.9c-0.1-1.4-0.8-2.4-1.8-3.3
						c-0.1-0.1-0.3-0.2-0.5-0.2C16.9,151.2,16.6,151.3,16.4,151.8z M29.8,154.2c0,0.1,0.1,0.3,0,0.3c-0.3,0.3-0.5,0.7-0.8,0.9
						c-0.7,0.5-1.4,0.6-2.2,0.5c-0.7,0-1.4-0.2-2.1-0.4c-0.6-0.2-1-0.6-1.2-1.2c0.6-0.3,0.9-0.2,1.2,0.3c0.3,0.5,0.7,0.7,1.3,0.7
						c0.9,0,1.6-0.3,2.4-0.7c0.4-0.2,0.8-0.4,1.2-0.6C29.5,154.2,29.6,154.2,29.8,154.2z M30.2,138.6c-1.4,0.1-2.8,0.5-4.2,0.7
						c-1.3,0.2-2.7,0.3-4-0.5c-0.1-0.1-0.2-0.1-0.3-0.1c-0.5-0.1-0.6,0-0.5,0.5c0.1,0.5,0.1,0.9,0.1,1.4l-0.2,0.1
						c-0.2-0.2-0.4-0.5-0.6-0.7c-0.4-0.3-0.6-0.2-0.8,0.2c-0.2,0.3-0.3,0.6-0.5,0.9c-0.7,1.1-1.4,2.1-2.1,3.2
						c-0.8,1.3-0.4,2.6,1.1,3c1.1,0.4,2.2,0.2,3.3-0.1c2.8-0.8,5.7-0.9,8.6-0.8c1.9,0.1,3.9,0.1,5.8-0.3c1-0.2,2.1-0.3,3-1
						c0.7-0.5,0.9-1.2,0.7-1.9c-0.3-1.2-1-2.2-2-2.9C35.4,138.8,32.8,138.3,30.2,138.6z"/>
					<path id="stussy" class="st0" d="M27.2,97.2c0,0,0,0.1,0,0.2c0,0,0,0,0.1,0c0.1,0,0.1-0.1,0.2-0.1c0.1,0,0.1,0.1,0.2,0.1
						c0.1,0,0.2-0.1,0.3-0.1c0.1,0,0,0.1,0.1,0.1c0.1,0,0-0.1,0.1-0.1c0.1,0,0.2,0.1,0.3,0.2c0,0.1,0,0.2,0.1,0.3
						c0,0.1,0.1,0.1,0.2,0.2c0,0,0.1,0,0.1,0.1c0,0.1-0.3,0.3-0.3,0.4c-0.3,0-0.4,0.5-0.5,0.8c-0.1,0.3-0.3,0.6-0.4,0.9
						c0,0-0.1,0-0.1,0.1c0,0.1,0,0.3-0.1,0.4c0,0.2-0.1,0.4-0.2,0.5c-0.1,0.1-0.2,0.1-0.3,0.2c0.3,0.2,0.5,0.2,0.7,0.2
						c0.1,0,0.4,0,0.5,0c0.1,0,0-0.1,0.1-0.1c0.1,0,0.2,0.2,0.3,0.2c0.1,0,0.2-0.1,0.3-0.1c0.1,0,0.4,0.2,0.5,0.2s0.2-0.1,0.3-0.1
						c0.1,0,0.3,0,0.4,0c0.1,0,0.3-0.1,0.4-0.1s0.3,0.2,0.3,0.2c0.1,0,0.7-0.3,0.8-0.3c0.2,0,0.3,0.2,0.5,0.2c0.1,0,0.3-0.1,0.4-0.1
						c0.1,0,0.6,0.1,0.7,0.1c0.1,0,0.1,0,0.1-0.1c0.1,0,0.3,0,0.4,0c0,0,0.1-0.1,0.2-0.1c0.1,0,0.2,0.1,0.3,0.1
						c0.1,0,0.7-0.2,0.8-0.2c0.1,0,0.5,0.2,0.6,0.3c0,0,0.1-0.1,0.2-0.1c0.5,0,0.6,0,0.7,0c0.1,0,0.1,0,0.2-0.1c0,0,0.1,0,0.7,0
						c0.1,0,0.2,0.1,0.3,0.1c0.3,0,0.2-0.3,0.4-0.3c0.1,0,0.4,0.3,0.5,0.3c0.1,0,0.2-0.1,0.3-0.1c0.1,0,0.1,0.1,0.2,0.1
						c0.1,0,0.3-0.1,0.3-0.1c0,0,0.1,0,0.2,0.2c0.1,0,0.3-0.2,0.4-0.2c0.1,0,0.2,0.1,0.3,0.1c0.1,0,0.5-0.1,0.6-0.1
						c0.1,0,0.5,0.2,0.6,0.2c0.1,0,0.4-0.3,0.6-0.3c0.1,0,0.7,0.3,0.8,0.3c0.1,0,0.2-0.1,0.3-0.1l0,0l2,0.1c0,0,0,0.1,0,0.2
						c0,0,0.1,0,0.1,0.1c0-0.5,0.5-0.3,0.7-0.6c0.2,0.1,0.6,0.2,0.7,0.2l0,0h0.6c0,0,0.1,0.1,0.1,0.2l0,0h0.1c0.1,0,0.1-0.2,0.2-0.2
						c0.7-0.1,1.3,0,1.9-0.1c0.1,0,0.2-0.2,0.3-0.3c0.2,0.1,0.4,0.1,0.6,0.2c0.1,0.1,0.3,0.5,0.3,0.6c0,0.1-0.4,0.5-0.5,0.5
						c-0.1,0-0.3-0.1-0.4-0.2c0,0-0.1,0-0.2,0c-0.1-0.1-0.2-0.1-0.3-0.1c-0.1,0-1.2,0.1-1.3,0.1c-0.1,0-0.4,0.2-0.5,0.2
						c-0.1,0-0.2-0.2-0.3-0.2c-0.1,0-0.3,0.2-0.4,0.2c-0.1,0-0.1-0.1-0.2-0.2c-0.1-0.1-0.3-0.1-0.4-0.1c-0.3,0-0.1,0.1-0.3,0.4l0,0
						h-0.5c-0.1,0-0.1-0.2-0.2-0.2c-0.2,0-0.4,0-0.6,0c0,0,0-0.1-0.1-0.1c-0.1,0-0.2,0.1-0.3,0.1c-0.1,0-0.2-0.1-0.3-0.1
						c-0.1,0-0.3,0-0.5,0c-0.1,0-0.1-0.1-0.2-0.2c-0.1,0-0.2,0-0.3,0c-0.1,0-0.2-0.1-0.3-0.1c-0.1,0-0.3,0.2-0.4,0.2
						c-0.1,0-0.2-0.1-0.3-0.1c-0.1,0-0.4,0.1-0.5,0.1c-0.1,0-0.2,0-0.3-0.1c-0.1,0-0.8,0.1-0.9,0.1c-0.1,0-0.2-0.1-0.3-0.1
						c-0.1,0-0.2,0-0.3,0c-0.1,0-0.3,0.2-0.4,0.3c0,0,0,0,0-0.1l0,0l0.1-0.1v-0.1c0,0,0,0-0.1,0c-0.3,0,0,0.3-0.4,0.3
						c-0.1,0-0.2-0.1-0.3-0.1c-0.1,0-0.2,0.1-0.3,0.1c-0.1,0-0.4-0.3-0.5-0.3c-0.1,0-0.2,0.2-0.4,0.3c-0.5,0-0.5,0-0.6,0
						c-0.2,0-0.4-0.2-0.5-0.2c0,0-0.2,0-0.3,0.1l0,0h-0.5c-0.2-0.1-0.3-0.1-0.5-0.1c0,0,0-0.1-0.1-0.1c-0.1,0-0.4,0.2-0.5,0.2
						c-0.1,0-0.2,0-0.2-0.1c0,0-0.1,0-0.4,0c-0.2,0.1-0.5,0.2-0.6,0.2c-0.1,0-0.2-0.1-0.3-0.1c-0.1,0-0.2,0.1-0.3,0.1
						c-0.1,0-0.4-0.2-0.5-0.2c-0.1,0-0.2,0.1-0.3,0.1c-0.1,0-0.3-0.2-0.4-0.2c-0.2,0-0.5,0.1-0.6,0.2c-0.1,0-0.2,0-0.3,0
						c-0.1,0-0.2,0.2-0.3,0.2c-0.1,0-0.3-0.3-0.4-0.3s-0.3,0.1-0.4,0.1c-0.1,0-0.8-0.2-0.9-0.2c-0.1,0-0.4,0.1-0.6,0.1
						c-0.2,0-0.4,0.2-0.5,0.2c-0.1,0-0.5-0.2-0.6-0.2c-0.2,0-0.2,0.1-0.2,0.2c0,0.3-0.4,0.6-0.4,1.2c0,0.1-0.1,0.7-0.2,1.1
						c-0.1,0.3-0.3,0.6-0.3,0.8c-0.2,0.7-0.4,1.4-0.6,2.1c0,0.1,0,0.2,0,0.3c-0.2,0.2-0.2,0.6-0.3,0.9c0,0.1-0.1,0.2-0.1,0.3l0,0
						v0.1l0.1,0.1c0.3-0.2,0.5-0.5,0.6-0.8c0.1,0,0.2-0.1,0.3-0.2c0-0.1,0-0.2,0.1-0.3c0.1,0,0.2,0,0.3-0.1c0.1-0.2,0.2-0.5,0.3-0.7
						c0.1-0.2,0.3-0.3,0.4-0.4c0.1-0.1,0.1-0.2,0.1-0.3c0.1-0.2,0.3-0.4,0.5-0.7l0,0l0.1,0.1c0,0,0,0,0.1,0c0.1-0.5,0.3-0.9,0.6-1.2
						c0,0,0.1,0,0.2,0c0.1-0.1,0.1-0.2,0.2-0.3c0.1,0,0.3-0.2,0.4-0.2c0.1,0,0.1,0.1,0.2,0.1c0.1,0,0.2-0.1,0.3-0.2
						c0.1,0,0.2,0,0.3-0.1c0.1,0,0.1-0.2,0.2-0.2c0.1,0,0.2,0,0.3,0c0.2,0.1,0.5,0.4,0.5,0.5c0,0.1-0.3,0.9-0.3,1l0,0v0.6
						c0,0.1-0.2,0.5-0.2,0.6c0,0.1,0.1,0,0.1,0.1s-0.1,0.7-0.2,1c0,0.1-0.1,0.3-0.2,0.4c-0.2,0-0.2,0.1-0.2,0.2
						c0,0.1,0.2,0.5,0.2,0.6c0,0.1-0.2,0.7-0.2,0.7c0,0.1,0,0.1,0.1,0.1c-0.2,0.1-0.1,0.4-0.1,0.6c0,0.1-0.1,0.3-0.2,0.5l0,0
						l0.1,0.1c0.1,0,0.2-0.3,0.3-0.4c0.1,0,0.1-0.1,0.2-0.1c0-0.1,0-0.1,0-0.2c0-0.1,0.5-0.5,0.6-1c0.3,0,0.2-0.4,0.3-0.5
						c0.2-0.2,0.3-0.5,0.5-0.6c0.1-0.1,0-0.2,0-0.3c0-0.1,0.1-0.1,0.2-0.3c0.1-0.2,0.2-0.4,0.3-0.6c0-0.1,0.2-0.1,0.3-0.2
						c0.1-0.1,0.2-0.3,0.2-0.4c0.2-0.1,0.7-0.3,1-0.4c0.1,0,0.1-0.1,0.2-0.1c0.1,0,0.2,0.1,0.3,0.2c0,0,0.1,0,0.2,0
						c0.3,0.4,0.4,0.4,0.4,0.7c0,0-0.2,0.5-0.2,0.5c0,0.1,0.1,0.7,0.2,1c0,0,0.1,0.1,0.1,0.2c-0.1,0.1-0.3,0.4-0.3,0.5
						c0,0.1,0.2,0.7,0.2,0.8c0,0.1-0.2,0.4-0.2,0.5c0,0.1,0,0.2,0,0.4c0,0,0,0.1,0.1,0.1c0.2,0,0.9-0.8,1.1-1l0.1-0.1
						c0.2-0.2,0.4-0.1,0.4-0.4c0-0.1,0.1-0.2,0.2-0.2c0.2-0.3,0.6-0.6,0.9-1c0,0,0.1,0,0.1,0c0.3-0.3,0.5-0.7,0.7-1.1
						c0.3,0,0.5-0.4,0.7-0.4c0.1,0,0.2,0.1,0.3,0.1c0.1,0,0.4-0.5,0.5-0.5c0.1,0,0.8,0.1,0.9,0.3c0.1,0,0.2,0,0.3,0.1
						c0.1,0.1,0.2,0.3,0.2,0.4c0,0.2-0.3,0.1-0.4,0.2c-0.1,0.1-0.2,0.2-0.3,0.3c0.1,0.1-0.1,0.2-0.2,0.2c-0.4,0-0.5,0.5-0.7,0.8
						c-0.3,0.3-0.8,0.6-0.9,0.9c-0.1,0-0.2,0-0.3,0.1c-0.1,0.1-0.1,0.2-0.2,0.3c-0.1,0.2-0.3,0.3-0.4,0.4c0,0,0,0,0.1,0.1
						c0.3,0,0.6,0.2,0.9,0.2c0.2,0,0.5,0.1,0.7,0.1c0.2,0,0.4,0,0.6,0c0.3,0,0.9,0.2,1,0.2c0.3,0,0.5-0.3,0.7-0.6
						c-0.1-0.2-0.3-0.2-0.4-0.2c-0.4,0-0.4,0-0.5,0c-0.1,0-0.3-0.4-0.3-0.5c0-0.1,0.1-0.3,0.2-0.4c0.4-0.1,0.5-0.4,0.7-0.7
						c0.1-0.1,0.2-0.2,0.3-0.3c0.2,0.1,0.8-0.2,0.7-0.5c0.1-0.1,0.2-0.1,0.3-0.2c0.3,0.1,0.4-0.4,0.6-0.6c0.1-0.2,0.4-0.4,0.6-0.5
						c0.1-0.1,0.4-0.1,0.5-0.2c0.1-0.1,0.2-0.3,0.3-0.4c0.1-0.1,0.3-0.1,0.4-0.3c0.2-0.2,0.5-0.4,0.7-0.7c0.2-0.3,0.4-0.6,0.7-0.5
						c0.3-0.1,0.7,0,0.8-0.4c0.1,0,0.3-0.1,0.4-0.2c0.1,0.1,0.2,0.2,0.3,0.2c0.1,0,0.1-0.1,0.2-0.1c0.1,0,0.2,0.1,0.3,0.1
						c0.1,0,0.1-0.1,0.2-0.2c0.2,0,0.4,0.3,0.4,0.5c-0.2,0.1-0.2,0.3-0.3,0.4c-0.2,0.2-0.6,0.5-0.8,0.8c-0.1,0.1-0.2,0-0.2,0.1
						c-0.2,0.1-0.5,0.2-0.5,0.5c-0.1,0-0.2,0-0.2,0.1c0.1,0.5-0.5,0.9-0.9,1.3c-0.1,0.1-0.3,0.2-0.4,0.2c0,0.1,0,0.3-0.1,0.5
						c0.4,0.3,1.2,0.1,1.7,0.5c0.1,0,0.2-0.2,0.3-0.2c0.1,0,0.7,0.2,0.8,0.2l0,0h0.7c0.3-0.4,0.4-0.8,0.8-1.1c0,0-0.1-0.1-0.1-0.1
						c0.3,0,0.3-0.5,0.3-0.5c0.1-0.2,0.3-0.4,0.5-0.7c0.1-0.1,0.1-0.3,0.1-0.4c0,0,0.1-0.1,0.1-0.2c0,0,0-0.1,0-0.2
						c0.2-0.1,0.6-0.4,0.7-0.4c0.1,0,0.3,0.1,0.4,0.1c0.1,0,0.3-0.2,0.5-0.3c0,0,0.1,0.1,0.2,0.1c0.1,0,0.3,0,0.5,0.1
						c0.2,0.1,0.5,0.6,0.5,0.8l0,0v0.9c0,0.1-0.3,0.6-0.3,0.7s0,0.3,0,0.4c0,0,0.1,0,0.1,0.1c0,0.1-0.1,0.2-0.1,0.3
						c0,0.6,0.3,0.5,0.3,0.8c0,0.3-0.1,0.5-0.4,0.7c0.1,0.1,0.3,0.2,0.3,0.3c0,0.2-0.2,0.5-0.2,0.8c0,0.1,0.1,0.7,0.1,0.8
						c0,0.1-0.2,0.3-0.2,0.4c0.1,0.1,0.2,0.2,0.2,0.2c0.1,0.1,0,0.5,0.2,0.6c0,0,0,0,0.1,0c0.3-0.3,0.2-0.7,0.3-1
						c0,0.1,0.1,0.1,0.1,0.2c0.1,0,0.1-0.1,0.1-0.2c0-0.1-0.1-0.1-0.1-0.2c0-0.1,0.2-0.2,0.3-0.2c0-0.2,0.1-0.5,0.1-0.6
						c0-0.1-0.1-0.2-0.1-0.3s0.3-0.3,0.4-0.5c0.3-0.3,0.3-0.6,0.4-0.9c0-0.1,0-0.1,0-0.2c0-0.1,0.2-0.2,0.2-0.2
						c0.1-0.4,0.6-1,0.4-1.4c0.1-0.1,0.2-0.2,0.2-0.3c0-0.1-0.1-0.3-0.1-0.4c0-0.1,0.2-0.4,0.2-0.7c0,0,0.1,0,0.2,0
						c0.1-0.1,0.1-0.2,0.2-0.2c0.1,0,0.2,0.1,0.3,0.1c0.1,0,0.1-0.1,0.2-0.2c0.1,0,0.3-0.1,0.4-0.1l0,0h0.5c0.1,0,0.1,0.1,0.2,0.1
						c0.1,0,0.1,0,0.1-0.1c0,0,0.1,0,0.2,0s0.1,0,0.2-0.1c0.1,0,0.1,0.1,0.2,0.2c0.1-0.1,0.3-0.2,0.4-0.3c0.1,0.1,0.4,0.3,0.4,0.4
						c0,0.2-0.3,0.3-0.4,0.5c0,0.1,0,0.3,0,0.4c0,0.1,0.2,0.5,0.2,0.5c0,0.1-0.1,0.1-0.1,0.2c0,0.1,0.1,0.6,0.1,0.7
						c0,0.1-0.2,0.2-0.3,0.3c0.1,0.1,0.1,0.1,0.2,0.2c0,0.7,0,0.7,0,0.8c-0.2,0.3-0.3,0.2-0.3,0.4c0,0,0,0.1,0.2,0.2
						c0,0.5-0.1,0.6,0,1c0,0.1,0.1,0.3,0.1,0.4c0,0.1-0.2,0.2-0.2,0.3c0,0.1,0.1,0.2,0.1,0.3c0,0.1,0,0.3,0,0.4
						c0,0.1,0.1,0.3,0.1,0.4l0,0v0.2c-0.1,0-0.1,0-0.3,0.1c0,0,0.1,0.1,0.2,0l0,0v0.4c0,0.1-0.1,0.1-0.1,0.2c0,0.1,0.2,0.5,0.2,0.6
						c0,0.1-0.1,0.2-0.1,0.3c0,0.1,0.1,0.2,0.1,0.3c0,0.3-0.5,0.3-0.5,0.3c0,0.1,0.1,0.1,0.1,0.3c0,0,0.1,0.1,0.1,0.1
						c0.1,0.2,0.1,0.4,0.2,0.6c0,0.1,0.1,0.1,0.1,0.2c0,0.2-0.5,0.8-0.5,0.8l0,0v0.5c0,0.5-0.3,0.2-0.5,0.8c0.1,0,0.2,0,0.3,0
						c0.2,0.2,0.4,0.5,0.4,0.7c0,0.1-0.1,0.3-0.1,0.4c0,0-0.4,0.2-0.4,0.3c0,0.1,0.4,0.4,0.4,0.8c0,0.1,0,0.3,0,0.5
						c0,0.1-0.1,0.2-0.2,0.2c0,0,0,0.1,0,0.2c0,0-0.1,0-0.1,0.1s0,0.2,0,0.3c0,0.1,0.1,0.1,0.2,0.1c0,0.2,0.1,0.4,0.1,0.6
						c0,0.4-0.1,0.6-0.1,0.7c0,0.1,0.1,0.5,0.1,0.6c0,0.1-0.1,0.3-0.1,0.5c0,0-0.1,0-0.2,0c0,0-0.3,0.5-0.3,0.6
						c0,0.1,0.1,0.4,0.2,0.5c0,0.1,0.2,0.2,0.3,0.2l0,0v0.1c0,0-0.1,0-0.1,0.1s0.1,0,0.1,0.1c0,0.1,0,0-0.1,0.1c0,0,0,0.1,0,0.2
						c0,0.1-0.1,0.6-0.3,0.6c0.1,0.1,0.2,0.4,0.2,0.5c0,0.1-0.1,0.3,0,0.4c0,0-0.1,0.1-0.2,0.1c-0.1,0-0.1-0.1-0.2-0.2l0,0l-0.1,0.1
						c0.2,0.3,0.3,0.3,0.3,0.5c0,0.1-0.1,0.4-0.1,0.5c0,0.1,0.1,0.1,0.1,0.2s-0.3,0.8-0.3,0.9c0,0.1,0.3,0.6,0.3,0.7
						c0,0.1-0.1,0.3-0.1,0.4c0,0.1,0.2,0.4,0.2,0.5c0,0.1-0.2,0.3-0.2,0.4c0,0.1,0.1,0.1,0.1,0.2c0,0.1-0.1,0.1-0.1,0.2
						c0,0.1,0.3,0.6,0.3,0.7c0,0.1,0,0.3-0.1,0.5c-0.2,0-0.4,0-0.5,0c-0.1,0-0.1,0.2-0.3,0.3c-0.2,0.1-0.5,0-0.8,0.1
						c-0.1,0-0.2,0.1-0.2,0.1c-0.2,0-0.7,0.1-0.7,0.1c-0.3,0-0.5-0.4-0.8-0.5c0-0.3,0.1-0.5,0.1-0.8c0.1,0,0.2,0,0.4,0
						c0,0,0-0.1,0-0.2c-0.1,0-0.3,0-0.4,0c0,0-0.1,0-0.1-0.1s0.2-0.7,0.2-0.8c0-0.1-0.2-0.3-0.2-0.4c0-0.1,0-0.1,0.1-0.2
						c0,0-0.1-0.1-0.1-0.1c0-0.4-0.1-0.9-0.1-1c0-0.1,0-0.2,0-0.3c0.1,0,0.3-0.1,0.3-0.2s-0.1-0.7-0.1-1.1c0,0-0.1-0.1-0.1-0.1
						c0.1-0.2,0.2-0.7,0.2-0.8l0,0v-0.5c0-0.1,0.1,0,0.1-0.1c0-0.1-0.2-0.5-0.2-0.6c0-0.1,0.2-0.2,0.2-0.4c0-0.1,0.1-0.3,0.1-0.4
						c0-0.1-0.2-0.3-0.2-0.4c0-0.1,0.1-0.4,0.2-0.6c0-0.5,0-0.5,0-0.6c0-0.1-0.1-0.2-0.1-0.3c0-0.2,0.3,0,0.3-0.4
						c0-0.1-0.1-0.3-0.1-0.4c0-0.4,0.3-0.5,0.3-1c0-0.1-0.1-0.1-0.1-0.1c0-0.2-0.1-0.5-0.1-0.6c0-0.1,0-0.2,0.2-0.4
						c-0.1,0-0.1-0.1-0.2-0.1c0-0.2,0-0.3,0-0.4c0-0.1,0.2-0.2,0.3-0.2c-0.1-0.1-0.5-0.4-0.5-0.5c0-0.1,0.2-0.2,0.2-0.3
						c0-0.1,0.1-0.2,0.1-0.3c0-0.1-0.1-0.3-0.1-1c0-0.1,0.1-0.2,0.1-0.3c0-0.1-0.1-0.2-0.1-0.3c0-0.1,0.1-0.1,0.1-0.2
						c0-0.1-0.1-0.3-0.1-0.4c0-0.1,0.1-0.1,0.1-0.2c0-0.1-0.2-0.2-0.2-0.4c0-0.1,0-0.2,0-0.3c0,0,0.1,0.1,0.2,0.1c0,0,0,0,0-0.1
						c0-0.1,0-0.1-0.1-0.2c0-0.2,0-1,0-1c0-0.1,0-0.4,0.1-0.5c0-0.1,0-0.3,0.1-0.4c0,0-0.1-0.1-0.1-0.1c0-0.4,0-0.8,0-1.2
						c0,0-0.1,0-0.1,0c0,0,0,0,0,0.1c0,0.1,0.1,0.2,0.1,0.3c-0.4,0.4-0.4,1-0.6,1.4c0,0.1-0.1,0.3-0.1,0.4c-0.1,0.1-0.1,0.1-0.2,0.1
						l0,0v0.2c0,0.1,0.1,0.1,0.1,0.2s-0.1,0.2-0.1,0.3c0,0.1,0,0.2,0,0.3c0,0.1-0.2,0.2-0.3,0.4c0,0.1,0.1,0.1,0.1,0.2
						c0,0.1-0.1,0.3-0.1,0.4c0,0.1-0.1,0.1-0.2,0.2c0,0.1,0,0.3,0,0.4c-0.1,0.3-0.3,0.7-0.3,0.8c0,0.1,0.1,0.1,0.1,0.2s0,0.3,0,0.4
						c0,0.2-0.2,0.6-0.3,0.7c-0.1,0-0.2,0-0.3,0c-0.1,0-0.2,0.2-0.3,0.2c-0.1,0-0.2-0.1-0.2-0.2l0,0h-0.1l-0.1,0.1v0.1
						c0,0,0.1,0,0.2,0.1c-0.2,0-0.5,0.2-0.7,0.2c-0.1,0-0.8-0.1-0.9-0.1c-0.1,0-0.1,0.1-0.2,0.1c-0.3,0-0.2-0.5-0.2-0.5
						c0-0.1-0.1-0.7-0.1-0.8c0-0.1,0.2-0.3,0.2-0.3c0-0.1-0.1-0.1-0.1-0.1c-0.1-0.1-0.1-0.2-0.1-0.3c0-0.1,0-0.5,0-0.6
						c0-0.1,0-0.2,0.1-0.2l0,0V117l-0.1-0.1c0,0-0.1,0.1-0.2,0.1c0-0.1,0-1,0-1.4l0-0.1c0,0,0.1-0.1,0.1-0.2c0-0.1-0.2-0.3-0.2-0.5
						c0,0-0.1-0.1-0.2-0.1c-0.2,0-0.1,0.2-0.5,0.3c-0.3,0.1-0.7,0.1-0.8,0.4c-0.7,0-0.5,0.4-1.1,0.4c-0.1,0-0.5-0.1-0.6-0.1
						c-0.1,0-0.3,0-0.5,0c0,0-0.1,0.1-0.2,0.1c-0.3,0-0.3-0.5-0.3-0.5c0-0.1,0-0.4,0-0.5c0-0.6,0.4-1.4,0.4-1.8c0,0,0,0-0.1,0
						c-0.3,0-0.8,0.6-0.9,0.7c-0.2,0.1-0.4,0.1-0.6,0.2c-0.1,0.1-0.2,0.3-0.3,0.4c-0.1,0.1-0.3,0.1-0.5,0.2
						c-0.4,0.3-0.9,0.4-1.4,0.7c-0.1,0.1-0.3,0-0.4,0c0,0-0.1,0.1-0.2,0.1c-0.2,0.1-0.4,0.1-0.6,0.2c-0.2,0.1-0.4,0.3-0.7,0.4
						c-0.2,0.1-0.4-0.1-0.6,0c-0.1,0-0.1,0.2-0.3,0.2c-0.1,0-0.3,0-0.4,0.1c-0.1,0-0.2,0.2-0.3,0.2c-0.1,0-0.3-0.1-0.5-0.1
						c-0.2,0-0.5,0-1.1,0c-0.2,0-0.3-0.3-0.4-0.4c0-0.1,0-0.1,0-0.2c0-0.1,0.1-0.7,0.1-0.8c0-0.2,0.3-0.4,0.3-0.5l0,0v-0.1
						c0.3,0,0.3-0.4,0.4-0.5c0,0,0.1,0,0.2-0.1c0,0,0,0,0-0.1c0-0.1,0.2-0.2,0.3-0.3c0,0,0-0.1,0-0.2c0-0.1,0-0.1,0-0.2
						c0.2-0.2,0.4-0.4,0.6-0.6c0.1,0,0.3,0,0.4-0.1c-0.1-0.1-0.3-0.1-0.4-0.1l0,0h-0.5c-0.1-0.1-0.1-0.2-0.2-0.2
						c-0.1,0-0.4,0.2-0.5,0.2c-0.1,0-0.2-0.1-0.3-0.1c-0.1,0-0.2,0-0.3,0c-0.1,0-0.3-0.1-0.4-0.2c-0.1,0-0.3-0.1-0.5-0.1
						c-0.2,0-0.5,0-0.8,0c-0.2,0-0.5-0.1-0.8-0.2c0,0-0.1-0.1-0.2-0.1l0,0h-0.6c0,0.1-0.1,0.1-0.1,0.2c0,0.1,0,0,0,0.1
						c0,0.2,0,0.3,0,0.5c0,0.1,0.1,0.4,0.1,0.5c0,0.1,0.1,0.1,0.1,0.2c0,0.1,0,0.3,0,0.4c0,0.1-0.1,0.3-0.1,0.4c0,0.1,0.1,0,0.1,0.1
						c0,0.1-0.1,0.3-0.2,0.4c0,0,0.1,0.1,0.1,0.2c0,0.2,0,0.5,0.1,0.7c0,0.3,0.2,0.8,0.2,0.9s-0.1,0.3-0.1,0.4c0,0.2,0,0.4,0,0.5
						c0,0.1,0,0.3,0.3,0.3c0,0.4,0.2,1,0.2,1.1c0,0.1,0.2,0.3,0.2,0.4l0,0v0.4c-0.1,0-0.3,0.1-0.4,0.1c-0.1,0.1-0.1,0.2-0.2,0.3
						c-0.1,0-0.2,0-0.3,0c0,0,0,0.1-0.1,0.2c-0.1,0.1-0.3,0.2-0.4,0.3c0,0,0,0.1,0,0.2c0,0-0.1,0.1-0.4,0.1l-0.2,0
						c-0.1,0-0.2,0.1-0.3,0.1c-0.1,0-0.2,0-0.3,0c-0.1,0-0.2-0.1-0.2-0.2c0-0.2-0.1-0.5-0.1-0.6c0-0.1,0.1-0.4,0.1-0.5
						c0-0.1-0.2-0.9-0.2-1c0-0.3,0-0.4,0.2-0.6c-0.1-0.2-0.2-0.1-0.3-0.1c0,0-0.1-0.1-0.1-0.1c0-0.3,0-0.6,0-0.9l0,0l0.1-0.5
						c0,0.1,0,0.1,0.1,0.2c0,0,0,0,0-0.1c0-0.1-0.3-0.4-0.3-0.5c0-0.1,0.1-0.4,0.1-0.5c0-0.1,0-0.3-0.1-0.4c0,0,0-0.1,0-0.8
						c0-0.1,0.1-0.2,0.1-0.3c0-0.1-0.1-0.4-0.1-0.5c0,0-0.1-0.1-0.1-0.1c-0.1-0.3,0-0.6,0-0.9c0-0.1,0-0.2,0-0.3c0,0,0,0-0.1,0
						c-0.2,0-0.4,0.6-0.4,0.8c-0.4,0.1-0.2,0.4-0.3,0.7c0,0-0.1,0.1-0.1,0.1c0,0.3-0.3,0.6-0.3,0.7c0,0.1,0.2,0.3,0.2,0.4
						c0,0.4-0.5,0.2-0.6,0.6c0,0,0,0,0,0.1c0,0.1-0.1,0.3-0.1,0.4c-0.2,0.2-0.2,0.4-0.4,0.5c0,0,0,0.1,0,0.2s-0.1,0.2-0.1,0.2
						c0,0.6-0.8,1.5-1.3,1.7c-0.2,0.1-0.5,0.2-0.6,0.2c-0.1,0-0.7-0.2-1-0.4c0-0.1-0.1-0.3-0.1-0.4c-0.6,0.4-1.2,0.9-1.7,1.3
						c-0.1,0-0.2,0-0.2,0c-0.1,0.1-0.3,0.4-0.5,0.5c-0.4,0.2-1,0.4-1.5,0.8c-0.1,0.1-0.5,0-0.7,0.1c-0.8,0.3-1.7,1-2.4,1.2
						c-0.2,0-0.5,0.5-0.6,0.5l0,0h-0.6c-0.1,0-0.3,0.1-0.4,0.2c-0.3,0.2-0.9,0.5-1.1,0.6c-0.3,0.1-0.5,0.1-0.8,0.2
						c-0.2,0.1-0.6,0.2-0.8,0.2c-0.1,0-0.3-0.1-0.3-0.1c-0.3,0-0.3,0.3-0.8,0.3c0,0,0,0.1,0,0.1c-0.1,0-0.1,0.1-0.2,0.1
						c-0.1,0-0.6-0.3-0.9-0.4c0,0-0.1-0.1-0.1-0.2s0.1-0.4,0.1-0.6c0-0.4,0.1-1,0.3-1.5c0.1-0.2,0-0.5,0.1-0.7
						c0.1-0.4,0.3-0.7,0.4-1.1c0-0.1,0-0.2,0-0.3c0-0.2,0.3-0.3,0.4-0.5c0.1-0.1,0.1-0.4,0-0.6c0.1-0.1,0.2-0.1,0.3-0.1
						c0.1-0.4,0.4-0.6,0.3-1c0.2-0.1,0.5-0.8,0.5-0.8c0-0.1-0.1-0.1-0.1-0.2c0-0.2,0.6-0.9,0.7-0.9c0-0.1,0-0.2,0-0.3
						c0.1-0.1,0.3-0.1,0.3-0.2c0.1-0.1,0.2-0.3,0.2-0.5c-0.1-0.1-0.3-0.1-0.4-0.2c-0.1,0-0.2-0.1-0.3-0.2c-0.2,0-0.5,0-0.7,0
						c-0.3,0-0.7-0.1-0.8-0.1c-0.1,0-0.4,0.1-0.5,0.1s-1.2-0.2-1.3-0.2c-0.1,0-0.4,0.2-0.5,0.2s-0.1-0.1-0.2-0.1c0,0-0.1,0-0.2,0
						c-0.2,0-0.6-0.2-0.7-0.2c-0.1,0-0.5,0.2-0.6,0.2c-0.1,0-0.1-0.1-0.4-0.1c-0.5,0-1-0.2-1.5-0.3c-0.4,0-0.5,0-0.6,0
						c-0.1,0-0.2-0.1-0.3-0.1c-0.1,0-0.2,0.1-0.3,0.1c-0.1-0.2-0.3-0.2-0.4-0.4c0-0.1,0-0.4,0-0.5c0-0.1,0.2-0.4,0.3-0.6
						c0.1,0,0.3,0,0.4-0.1c0.3-0.1,0.5-0.3,0.8-0.4c0.1-0.1,0.3-0.3,0.4-0.3c0.1,0,0.1,0.1,0.2,0.1c0.1,0,0.6-0.1,0.8-0.3
						c0.3,0,0.5-0.2,0.8-0.3c0.3-0.1,0.5-0.4,0.8-0.5c0.3-0.1,0.8-0.1,1.2-0.4c0,0,0-0.1,0.1-0.1c0.1-0.1,0.2-0.1,0.3-0.2
						c0.2-0.1,0.5-0.1,0.7-0.3c0.1-0.1,0.2-0.3,0.3-0.3c0.1,0,0.2,0,0.2,0c0.2-0.1,0.4-0.4,0.6-0.6c0.1-0.1,0.3-0.1,0.5-0.1
						c0.4-0.1,0.7-0.5,0.9-0.7c0.1,0,0.2,0,0.2,0c0.1-0.1,0.3-0.3,0.4-0.3c0.1,0,0,0.1,0.1,0.1l0,0h0.5c0.2-0.1,0.3-0.3,0.5-0.3
						c0.1,0,0.3,0.1,0.5,0.1c0.1,0.6,0.4,0.4,0.4,0.8c0,0.1-0.1,0.3-0.2,0.5c-0.1,0-0.2,0-0.3,0c-0.1,0.1-0.3,0.4-0.3,0.4
						c-0.1,0-0.2-0.1-0.3-0.1c-0.2,0-0.8,0.4-0.9,0.6c-0.1,0.1-0.2,0.3-0.3,0.3c-0.5,0.1-1.2,0.5-1.8,0.9c-0.3,0.1-0.6,0.2-0.9,0.3
						c-0.1,0-0.2,0-0.3,0c-0.4,0.3-0.7,0.7-1.1,0.6c0,0.1-0.1,0.1-0.1,0.2c0.2,0,0.5,0.1,0.6,0.1c0.1,0,0.1-0.1,0.2-0.1
						c0.1,0,0.3,0.2,0.3,0.2c0.3,0.1,0.6,0,0.8,0c0.1,0.1,0.1,0.2,0.2,0.2c0.4,0-0.4,0,0.8,0l0.3,0c0.1,0,0.3-0.1,0.4-0.1
						c0.1,0,0.4,0.2,0.5,0.2c0.1,0,0.2-0.1,0.3-0.1s0.2,0.1,0.3,0.1c0.2,0,0.4,0.1,0.6,0.1c0.2-0.4,0.4-0.7,0.5-1
						c0.1-0.2,0.3-0.4,0.5-0.5c0-0.5,0.6-0.9,0.7-1.4c0.3,0,0.3-0.3,0.4-0.5c0.2-0.1,0.3-0.2,0.4-0.4c0,0,0.1,0,0.2-0.1
						c0.1-0.2,0.2-0.4,0.2-0.6c0-0.1,0.2-0.3,0.3-0.4c0.1-0.1,0.3-0.7,0.6-0.6c0.1-0.2,0.2-0.4,0.3-0.6c0-0.1,0-0.3,0.1-0.4
						c0.1-0.1,0.4-0.2,0.5-0.4c0.1-0.2,0.2-0.4,0.3-0.6c0-0.1,0-0.2,0-0.2c0.1-0.1,0.2-0.2,0.2-0.3c0.1,0,0.2,0,0.2-0.1
						c0.1-0.2,0.3-0.4,0.4-0.6l0,0v-0.1c0,0-0.1,0-0.2,0c-0.1,0-0.4,0.1-0.5,0.1c-0.1,0-0.2-0.1-0.3-0.1l0,0h-0.5
						c-0.1,0-0.1,0.1-0.1,0.1c-0.1,0-0.2,0-0.3,0c-0.1,0-0.6-0.2-0.7-0.2c-0.1,0-0.8,0.2-0.9,0.2s-0.3-0.2-0.4-0.2
						c-0.1,0-0.1,0.1-0.2,0.1c-0.1,0-0.1-0.2-0.2-0.2s-0.1,0-0.1,0.1c-0.1,0-0.2,0-0.3,0c0,0-0.1,0.1-0.2,0.1c-0.2,0-0.4,0-0.6,0
						c-0.1,0-0.1,0-0.2,0c-0.1,0-0.5-0.2-0.6-0.2c-0.1,0-0.4,0.2-0.5,0.2c-0.1,0-0.3-0.3-0.4-0.3c-0.1,0-0.3,0.4-0.4,0.4
						c-0.1,0-0.6-0.2-0.9-0.3c-0.2-0.1-0.3-0.3-0.5-0.4c0,0,0,0,0-0.1c0-0.3,0.3-0.3,0.6-0.3c0.1,0,0.3,0.2,0.4,0.2s0.2-0.1,0.3-0.1
						c0.2,0,0.3,0,0.5,0c0.1,0,0.1-0.1,0.2-0.1c0.3,0,0.2,0.3,0.7,0.3c0.4,0,0.7-0.2,0.8-0.2c0.1,0,0.2,0.1,0.3,0.1
						c0.1,0,0.4-0.2,0.5-0.2c0.1,0,0.6,0.2,0.7,0.2c0.1,0,1-0.2,1.1-0.2c0.1,0,0.3,0.1,0.4,0.1l0,0h1.1c0.1,0.1,0.1,0.2,0.2,0.2
						c0.1,0,0.3-0.2,0.4-0.2c0.1,0,0.3,0,0.4,0c0.1,0,0.5,0.2,0.6,0.2c0.5,0,0.9-1,1.1-1.4c0-0.1,0.2-0.2,0.3-0.2
						c0,0,0.2-0.3,0.4-0.3c0-0.1,0-0.3,0-0.5c0.1-0.1,0.3-0.2,0.3-0.3c0.2-0.4,0.3-1.5,0.9-1.5c0,0,0.1-0.1,0.2,0
						c0.1,0,0.2-0.2,0.3-0.2l0,0H27.2z M20.7,112.9c-0.1,0-0.1,0.1-0.2,0.1c-0.2,0-0.4,0-0.5,0c-0.1,0-0.1,0.1-0.2,0.1
						c-0.1,0-0.2-0.1-0.3-0.1s-0.5,0.1-0.7,0.1c-0.1,0.1-0.2,0.2-0.3,0.3c0.1,0.4-0.3,0.8-0.3,0.9c0,0.3-0.1,0.4-0.5,0.7
						c0.1,0.2-0.2,0.3-0.3,0.5c0,0.1,0,0.3-0.1,0.4c-0.2,0.4-0.7,1.2-0.7,1.3c0,0.2,0,0.2-0.1,0.5c-0.1,0.3-0.3,0.7-0.5,1
						c-0.2,0.5-0.3,1-0.5,1.5l0,0v0.4c0.1-0.1,0.1,0,0.1,0c0.1,0,0.1,0,0.2,0s0.4-0.2,0.5-0.3c0.2,0,0.4-0.1,0.6-0.1
						c0-0.2,0.2-0.2,0.4-0.2c0,0,0.1-0.1,0.2-0.1c0.3,0,0.5-0.1,0.8-0.1c0.3-0.2,0.7-0.5,1.1-0.7c0.2-0.1,0.5-0.2,0.7-0.3
						c0.4-0.2,0.9-0.4,1.2-0.6c0.2-0.1,0.4-0.2,0.5-0.2c0.2-0.1,0.5-0.2,0.7-0.4c0.1,0,0.2-0.2,0.2-0.2c0.1,0,0.2,0,0.3,0
						c0.1-0.1,0.2-0.3,0.3-0.4c0.3-0.2,0.6-0.3,0.9-0.5c0.2-0.2,0.6-0.2,0.8-0.3c0.1-0.1,0.2-0.2,0.3-0.3c0-0.1,0.1-0.2,0.2-0.3
						c0.1-0.1,0.4-0.1,0.5-0.2c0.2-0.1,0.5-0.5,0.6-0.6c0-0.1,0.1-0.2,0-0.3c0-0.4-0.3-0.2-0.5-0.5c-0.1,0-0.3,0.1-0.3,0.1
						c-0.1,0-0.1-0.1-0.2-0.2c-0.1,0-0.2,0-0.3,0c-0.1,0-0.7,0-0.8,0c-0.1,0-0.2,0-0.3,0c-0.2,0.3-0.5,0.5-0.6,0.9
						c-0.1,0.8-0.6,1.6-1.4,2.2c-0.1,0.1-0.2,0-0.3,0.1c-0.1,0.1-0.3,0.4-0.4,0.5l0,0h-0.6c-0.1,0-0.3,0-0.4,0
						c-0.3-0.2,0-0.5-0.3-0.8c0.1-0.2,0.4-0.3,0.4-0.5c0-0.1,0-0.1,0-0.2c0,0,0.1,0,0.1-0.1c0.1-0.1,0.1-0.2,0.1-0.3
						c0-0.2,0-0.4,0.1-0.5c0-0.1,0.1,0,0.2-0.1c0-0.5,0.1-0.3,0.1-0.4c0-0.1-0.1-0.1-0.1-0.2c0-0.1,0.2-0.2,0.2-0.3
						c0-0.1-0.1-0.2-0.1-0.3c0-0.1,0.2-0.3,0.2-0.4c0-0.1-0.1-0.2-0.2-0.2c-0.1,0-0.1,0.1-0.2,0.1c-0.1,0-0.4-0.1-0.6-0.1
						C20.9,113,20.8,112.9,20.7,112.9z M42,112.4c-0.1,0-0.3,0-0.5,0c-0.1,0.1-0.2,0.2-0.2,0.3c0,0.2-0.2,0.4-0.3,0.6
						c-0.2,0.2-0.3,0.6-0.4,0.8c0,0.1-0.1,0.2-0.1,0.3c0,0.1,0,0.1,0,0.1l0,0h0.4c0.1,0,0.8-0.1,1.2-0.3c0.4-0.2,0.8-0.4,1.2-0.6
						c0.1,0,0.1-0.2,0.2-0.2c0.2-0.1,0.7-0.2,0.8-0.4c-0.2-0.2-0.4-0.1-0.6-0.1c-0.1,0-0.2-0.1-0.3-0.1c-0.1,0-0.1,0.1-0.2,0.1
						C43.2,112.8,42.1,112.4,42,112.4z M50.1,110.8c-0.1,0.1-0.2,0.4-0.2,0.5c-0.2,0.1-0.3,0.5-0.3,0.7c0,0.1,0,0.2,0,0.3
						c0,0-0.1,0.1-0.1,0.2c0,0.2,0,0.3,0,0.5c0,0.1-0.2,0.1-0.2,0.2c0,0.2-0.1,0.6-0.1,0.7c0,0.1,0,0.1,0,0.1c0,0,0.1,0,0.2,0
						c0.1,0,0.7-0.3,1-0.4c0.1-0.1,0.1-0.1,0.1-0.2c0-0.1-0.1-0.7-0.1-0.8c0-0.1,0.2-0.7,0.2-0.8c0-0.1-0.1-0.2-0.1-0.3
						c0-0.1,0.1-0.1,0.1-0.2c0-0.2-0.3-0.3-0.2-0.5C50.2,110.8,50.1,110.8,50.1,110.8z M27.2,109.5c-0.3,0.2-0.6,0.3-0.7,0.5
						c-0.1,0.2-0.1,0.6-0.3,0.8c-0.1,0.2-0.6,0.6-0.6,0.9c0,0.1,0,0.1,0.1,0.2c0.2,0.1,0.4,0.1,0.6,0.2c0.1,0,0.2,0,0.2,0
						c0.1,0.1,0.2,0.1,0.3,0.2l0,0H27c0-0.1,0.1-0.2,0.1-0.3c0-0.1-0.1-0.3-0.1-0.4c0-0.1,0.1-0.5,0.1-0.8c0-0.1,0.2-0.2,0.2-0.3
						c0-0.1,0-0.3,0-0.4C27.3,110,27.3,109.7,27.2,109.5z M43.8,109.8c-0.4,0-0.3,0.3-0.8,0.4c0,0.1-0.2,0.2-0.2,0.3
						c0,0.2,0.2,0.3,0.4,0.3l0,0h0.6c0.1,0,0.5,0.1,0.8,0.1c0.1,0,0.2,0.2,0.3,0.2c0.7,0,1.4,0.2,2.1,0.7c0,0,0.1,0,0.1,0
						c0.1-0.2,0.2-0.6,0.3-0.7c0.1,0,0.1,0,0.2,0.1c-0.1-0.6,0.1-0.6,0.1-0.9c0-0.1,0-0.1,0-0.1c-0.3,0-0.5,0-0.7,0
						c-0.2-0.1-0.6-0.2-0.7-0.2c-0.1,0-0.1,0.1-0.2,0.1c-0.1,0-0.1-0.1-0.2-0.1c-0.1,0-0.1,0.1-0.2,0.1c-0.1,0-0.3-0.1-0.4-0.1
						s-0.3,0.1-0.8,0.1C44.3,109.9,43.9,109.8,43.8,109.8z M24,105c-0.2,0.3-0.3,0.6-0.5,0.8c-0.1,0.1-0.2,0-0.3,0.1
						c0,0.2-0.1,0.4-0.1,0.5c0,0.2-0.2,0.1-0.3,0.2c-0.2,0.2,0,0.7-0.4,0.8c0,0.3-0.3,0.8-0.5,1.1c0,0.1-0.2,0.1-0.2,0.2
						c-0.1,0.2-0.1,0.4-0.2,0.6c-0.1,0.2-0.4,0.2-0.5,0.3c0,0-0.1,0.1-0.1,0.2c0,0.5-0.2,0.4-0.5,1c0,0.1-0.2,0.1-0.2,0.2
						c0,0.1,0,0.2-0.1,0.3c0,0.1-0.1,0.1-0.2,0.2c0.1,0,0.1,0,0.2,0c0.1,0,0.1,0.1,0.2,0.1c0.1,0,0.1-0.1,0.2-0.1
						c0.1,0,0.1,0,0.2,0.1c0,0,0.1,0,0.5,0c0.3,0,0.7,0.1,1,0.1c0.1-0.2,0.3-0.6,0.3-0.7s-0.1-0.2-0.1-0.3c0-0.1,0.1-0.3,0.1-0.5
						c0.1,0,0.2,0.1,0.3-0.1c0-0.1,0-0.2,0-0.2c0-0.1,0.1-0.2,0.2-0.3c0-0.1-0.2-0.1-0.2-0.2c0-0.1,0-0.4,0.2-0.6
						c0.1-0.2,0.2-0.3,0.3-0.4c0-0.1,0-0.3,0-0.4c0.1-0.2,0.3-0.5,0.3-0.6c0-0.6,0-0.1,0.2-1.1c0-0.1,0.1-0.2,0.2-0.2
						c0.1-0.2,0.2-0.7,0.2-0.8C24.1,105.1,24,105,24,105z M31.1,99.7c0.3,0,0.4,0.4,0.4,0.5c0,0.1-0.1,0.4-0.2,0.5
						c-0.1,0.1-0.3,0.2-0.3,0.2s-0.1,0-0.1-0.1c-0.1,0-0.2,0-0.3,0c0-0.1-0.2-0.2-0.2-0.3c0-0.1,0.1-0.1,0.1-0.2c0-0.1,0-0.1,0-0.2
						C30.4,99.8,30.9,99.7,31.1,99.7z M33.7,99.5c0.1,0,0.2,0,0.3,0.1c0,0,0.4,0.5,0.4,0.6c0,0.1,0,0.2-0.1,0.2
						c-0.1,0.1-0.3,0.3-0.4,0.3c-0.1,0-0.1-0.1-0.2-0.1c-0.1,0-0.1,0.1-0.2,0.1c-0.1,0-0.2-0.1-0.3-0.2c-0.1-0.1-0.2-0.3-0.2-0.4
						s0-0.2,0.1-0.3c0.1-0.1,0.3-0.2,0.4-0.4C33.5,99.6,33.6,99.5,33.7,99.5z"/>
					<path id="adidas" class="st0" d="M53.8,85.3c1.8,0,3.2,1.1,3.3,2.6l0,0.2l-1.8,0c-0.1-0.7-0.7-1.2-1.5-1.2
						c-0.5,0-1.5,0.2-1.5,0.8c0,0.9,1.5,1,1.9,1c2.4,0.2,3.2,1.3,3.2,2.6c0,1-0.5,1.7-1.2,2.2c-0.6,0.4-1.8,0.6-2.5,0.6
						c-1.5,0-3.1-0.8-3.4-2.7l0-0.2h1.8c0.1,1,1.1,1.3,1.6,1.3c1,0,1.7-0.4,1.7-1c0-0.8-0.7-1-1.8-1.1c-0.6-0.1-1.7-0.3-2.2-0.7
						c-0.5-0.4-1-0.9-1-1.8C50.4,86.5,51.6,85.3,53.8,85.3z M40.2,82.6V94h-1.8v-0.8c-0.7,0.5-1.6,0.8-2.5,0.8
						c-2.3,0-4.2-1.9-4.2-4.4c0-2.4,1.9-4.3,4.2-4.3c0.9,0,1.8,0.3,2.5,0.8l0,0v-3.6H40.2z M45.3,85.3c0.8,0,1.6,0.3,2.3,0.7
						l0.2,0.1v-0.8h1.8V94h-1.8l0-0.8c-0.7,0.5-1.5,0.8-2.5,0.8c-2.3,0-4.2-1.9-4.2-4.4C41.1,87.3,43,85.3,45.3,85.3z M14.2,85.3
						c0.8,0,1.6,0.3,2.3,0.7l0.2,0.1v-0.8h1.8V94h-1.8v-0.8c-0.7,0.5-1.6,0.8-2.5,0.8c-2.3,0-4.2-1.9-4.2-4.4
						C10,87.3,11.8,85.3,14.2,85.3z M27.8,82.6V94h-1.8v-0.8c-0.7,0.5-1.6,0.8-2.5,0.8c-2.3,0-4.2-1.9-4.2-4.4
						c0-2.4,1.9-4.3,4.2-4.3c0.8,0,1.6,0.3,2.3,0.7l0.2,0.1v-3.6H27.8z M30.9,85.4V94h-1.8v-8.6H30.9z M35.9,87.1L35.9,87.1
						c-1.4,0-2.5,1.1-2.5,2.6l0,0v0c0,1.4,1.1,2.5,2.5,2.5l0,0h0c1.4,0,2.5-1.1,2.5-2.6l0,0C38.4,88.3,37.3,87.1,35.9,87.1
						L35.9,87.1z M45.3,87.1c-1.4,0-2.5,1.1-2.5,2.6c0,1.4,1.1,2.6,2.5,2.6l0,0h0c1.4,0,2.5-1.2,2.5-2.6
						C47.8,88.3,46.7,87.1,45.3,87.1z M14.2,87.1c-1.4,0-2.5,1.1-2.5,2.6c0,1.4,1,2.5,2.3,2.6l0.2,0h0c1.4,0,2.5-1.1,2.5-2.6
						C16.6,88.3,15.5,87.1,14.2,87.1z M23.4,87.1c-1.3,0-2.4,1.1-2.5,2.4l0,0.2v0c0,1.4,1,2.5,2.3,2.5l0.2,0h0
						c1.3,0,2.4-1.1,2.5-2.4l0-0.2C25.9,88.3,24.8,87.1,23.4,87.1z M30.9,82.6v2.2h-1.8v-2.2H30.9z"/>
					<path id="North-Face" class="st0" d="M45.9,76.2h-3.5V69h1.3c0.6,0,1.1,0.2,1.6,0.6c0.4,0.4,0.6,0.9,0.6,1.6V76.2z M51.7,76.2
						h-5.2v-5c0-0.8-0.3-1.5-0.8-2c-0.5-0.6-1.3-0.8-2-0.8h-1.3v-7.2h0.7c1.9,0,3.5,0.5,5,1.6c0.4,0.2,0.7,0.5,1,0.8
						c1.7,1.7,2.5,3.8,2.5,6.1V76.2z M42.4,53.3c4.5,0,8.4,1.7,11.6,4.9c3.3,3.3,4.9,7.2,4.9,11.8v6.3h-6.6v-6.5
						c0-2.6-0.9-4.8-2.7-6.6c-0.4-0.5-0.9-0.8-1.4-1.2c-1.5-1-3.2-1.4-5-1.4h-0.7V53.3z M34.3,71.4h1.4c-0.1-0.6-0.3-1.2-0.7-1.6
						c-0.6-0.5-1.4-0.9-2.4-0.9s-1.7,0.4-2.4,1c-0.5,0.6-0.9,1.5-0.9,2.7c0,2.6,1.1,3.8,3.2,3.8c1.8,0,2.8-0.9,3.2-2.7h-1.4
						c-0.2,0.8-0.8,1.3-1.6,1.3c-1.2,0-1.7-0.8-1.7-2.4c0-1.7,0.5-2.6,1.7-2.6C33.5,70.1,33.9,70.6,34.3,71.4L34.3,71.4z M26.3,70.6
						l0.9,2.8h-1.8L26.3,70.6z M27.2,69h-1.7L23,76.2h1.5l0.6-1.6h2.6l0.4,1.6h1.6L27.2,69z M24.7,64.3v-1.9h1.8
						c0.7,0,1.1,0.3,1.1,0.9c0,0.6-0.4,1-1.2,1H24.7z M26.2,65.5c0.5,0,0.8,0.1,1,0.3l0.3,2.5h1.6v-0.2c-0.2-0.1-0.3-0.5-0.3-1.4
						c0-1-0.4-1.5-0.9-1.8c0.7-0.3,1.1-0.8,1.1-1.7c0-1.3-0.7-2-2.3-2h-3.5v7.1h1.5v-2.7H26.2z M35.2,62.4v-1.3h-5.8v1.3h2.2v5.8H33
						v-5.8H35.2z M20.2,71.9v-1.7h3.6V69h-5.1v7.2h1.4v-3h3.2v-1.3H20.2z M13.5,61.1v5l-2.8-5H9.2v7.1h1.4v-5l2.9,5H15v-7.1H13.5z
						 M17.2,64.7c0-1.6,0.6-2.5,1.9-2.5c1.4,0,2,0.8,2,2.5c0,1.7-0.6,2.6-2,2.6C17.8,67.3,17.2,66.4,17.2,64.7L17.2,64.7z
						 M19.1,60.9c-2.3,0-3.5,1.3-3.5,3.8c0,2.6,1.2,3.9,3.5,3.9c2.3,0,3.4-1.3,3.4-3.9C22.5,62.3,21.3,60.9,19.1,60.9L19.1,60.9z
						 M23.6,53.3v1.3h2.2v5.8h1.4v-5.8h2.2v-1.3H23.6z M35.4,53.3H34V56h-2.8v-2.7h-1.4v7.1h1.4v-3.2H34v3.2h1.4V53.3z M41.4,70.3
						V69h-5.2v7.2h5.2v-1.3h-3.7V73H41v-1.2h-3.3v-1.6H41.4z M40,61.1v2.7h-2.8v-2.7h-1.5v7.1h1.5v-3.2H40v3.2h1.4v-7.1H40z
						 M41.4,54.6v-1.3h-5.2v7.1h5.2v-1.2h-3.7v-1.9H41V56h-3.3v-1.4H41.4z"/>
					<path id="Supreme" class="st1" d="M58.9,11.6v18.5H7.7V11.6H58.9z M27.3,17.3c-0.6,0-1.3,0.3-1.8,0.7l-0.1,0.1l0.1-0.6h-1.9
						l-1.6,10.7h1.9l0.7-4.4h0c0.3,0.6,1,0.9,1.6,0.9c2,0,3.4-1.8,3.7-3.8C30.1,19.1,29.2,17.3,27.3,17.3z M13.9,13.5
						c-1.7,0-3.2,1.4-3.5,3.2c-0.3,1.7,0.6,2.4,1.8,2.9c0.8,0.3,1.7,0.6,1.5,1.8c-0.1,0.8-0.7,1.5-1.6,1.5c-0.8,0-1.4-0.7-1.6-1.4
						l0-0.1l-1.5,1.3c0.5,1.2,1.4,2.1,2.8,2.1c2.1,0,3.6-1.5,3.9-3.7c0.5-3.6-3.6-2.8-3.4-4.7c0.1-0.7,0.8-1.2,1.4-1.2
						c0.6,0,1,0.3,1.3,0.7l0.1,0.1l1.2-1.4C16,13.9,14.8,13.5,13.9,13.5z M54.9,17.3c-2.2,0-3.5,1.7-3.8,3.8
						c-0.3,2.1,0.7,3.7,2.8,3.7c1.3,0,2.6-0.7,3.3-2l0.1-0.2l-1.7-0.3c-0.3,0.6-0.8,1-1.4,1c-0.9,0-1.1-0.9-1-1.8l0-0.1h4.4l0-0.2
						C57.8,19,57.1,17.3,54.9,17.3z M38.1,17.3c-2.2,0-3.5,1.7-3.8,3.8c-0.3,2.1,0.7,3.7,2.8,3.7c1.3,0,2.6-0.7,3.3-2l0.1-0.2
						l-1.7-0.3c-0.3,0.6-0.8,1-1.4,1c-0.9,0-1.1-0.9-1-1.7l0-0.1h4.4l0-0.2C41,19,40.3,17.3,38.1,17.3z M22.8,17.5h-1.9l-0.6,3.8
						C20.2,22.1,20,23,19,23c-0.9,0-0.9-0.9-0.8-1.6l0-0.1l0.6-3.8h-1.9l-0.6,4.1c-0.3,2,0.5,3.1,2.5,3.1c1.9,0,3.1-1,3.4-2.9l0-0.2
						L22.8,17.5z M49.1,17.3c-0.8,0-1.6,0.4-2.1,1.1c-0.3-0.7-0.9-1.1-1.8-1.1c-0.6,0-1.2,0.3-1.6,0.7l-0.1,0.1h0l0.1-0.6h-1.9
						l-1.1,7h1.9l0.5-3.4c0.1-0.7,0.3-2.2,1.3-2.2c0.9,0,0.7,1.3,0.6,2l0,0.1l-0.5,3.5h1.9l0.5-3.4c0.1-0.7,0.3-2.2,1.4-2.2
						c0.9,0,0.7,1.2,0.6,1.9l0,0.1l-0.6,3.7h1.9l0.7-4.4C51,18.6,50.8,17.3,49.1,17.3z M34.4,17.3c-0.6,0-1.2,0.3-1.7,0.8l-0.1,0.1
						h0l0.1-0.7h-1.9l-1.1,7h1.9l0.5-3.1c0.2-1.1,0.5-2.3,1.8-2.3c0.2,0,0.4,0.1,0.6,0.2l0.1,0.1l0.5-1.8
						C34.9,17.3,34.6,17.3,34.4,17.3z M26.6,19c1,0,1.4,1,1.3,1.9l0,0c-0.1,0.9-0.9,2-1.9,2c-1,0-1.4-1-1.3-2
						C24.8,20,25.6,19,26.6,19z M54.8,18.7c0.7,0,1,0.6,1,1.3l0,0.1l-2.5,0C53.5,19.3,54,18.7,54.8,18.7z M38,18.7
						c0.7,0,1.1,0.7,1,1.4l0,0l-2.5,0C36.8,19.3,37.3,18.7,38,18.7z"/>
				</g>
			</g>
		</g>
	</g>
	<path id="kith_1_" class="st0" d="M7.6,41.6v9.2h51.2V32.4H7.6V41.6z"/>
</g>
<path class="st1" d="M37.2,32.9"/>
</svg>
